<?xml version="1.0" encoding="UTF-8" standalone="no"?>
<!-- Created with Inkscape (http://www.inkscape.org/) -->

<svg xmlns:dc="http://purl.org/dc/elements/1.1/" xmlns:cc="http://creativecommons.org/ns#" xmlns:rdf="http://www.w3.org/1999/02/22-rdf-syntax-ns#" xmlns:svg="http://www.w3.org/2000/svg" xmlns="http://www.w3.org/2000/svg" xmlns:sodipodi="http://sodipodi.sourceforge.net/DTD/sodipodi-0.dtd" xmlns:inkscape="http://www.inkscape.org/namespaces/inkscape" width="3.3985mm" height="3.3896mm" viewBox="0 0 12.042 12.011" id="svg4228" version="1.1" inkscape:version="0.91 r13725" sodipodi:docname="earth.svg">
  <defs id="defs4230" />
  <sodipodi:namedview id="base" pagecolor="#ffffff" bordercolor="#666666" borderopacity="1.0" inkscape:pageopacity="0.0" inkscape:pageshadow="2" inkscape:zoom="31.678" inkscape:cx="8.5483" inkscape:cy="7.7051" inkscape:document-units="px" inkscape:current-layer="layer1" showgrid="false" fit-margin-top="0" fit-margin-left="0" fit-margin-right="0" fit-margin-bottom="0" inkscape:window-width="1280" inkscape:window-height="752" inkscape:window-x="0" inkscape:window-y="0" inkscape:window-maximized="1" />
  <metadata id="metadata4233">
    <rdf:RDF>
      <cc:Work rdf:about="">
        <dc:format>image/svg+xml</dc:format>
        <dc:type rdf:resource="http://purl.org/dc/dcmitype/StillImage" />
        <dc:title></dc:title>
      </cc:Work>
    </rdf:RDF>
  </metadata>
  <g inkscape:label="Layer 1" inkscape:groupmode="layer" id="layer1" transform="translate(-22.538,-29.211)">
    <ellipse style="opacity:1;fill:#e1f4ff;fill-opacity:1;stroke:none;stroke-width:0.8;stroke-linecap:round;stroke-linejoin:round;stroke-miterlimit:4;stroke-dasharray:none;stroke-dashoffset:0;stroke-opacity:1" id="path4820" cx="28.552" cy="35.256" rx="5.951" ry="5.9352" />
    <path style="fill:#02a24b;fill-opacity:1" d="m 27.614,41.156 c -1.5,-0.3 -3,-1.1 -3.9,-2.3 -2.1,-2.9 -1.3,-6.8 1.7,-8.7 2.3,-1.5 5.4,-1.2 7.4,0.8 0.8,0.8 1.3,1.7 1.6,2.9 0.2,0.6 0.2,1.7 0.1,2.3 -0.4,2.5 -2.1,4.3 -4.5,4.9 -0.7,0.2 -1.8,0.2 -2.4,0.1 z m 1.5,-0.7 c 1,-0.1 1.9,-0.4 2.7,-1 0.2,-0.2 0.2,-0.2 0.2,-0.3 0,-0.2 0.2,-0.7 0.3,-0.9 0.1,0 0.2,-0.1 0.3,-0.2 0.2,0 0.2,-0.1 0.3,-0.3 0.1,-0.3 0.2,-0.5 0.1,-0.5 0,0 -0.1,0 -0.1,-0.1 0,-0.1 0.3,-0.4 0.7,-0.6 0,-0.1 0.1,-0.2 0.2,-0.2 0.1,-0.3 0.1,-1.8 0,-1.8 -0.1,0 -0.1,0.3 -0.1,0.6 0.1,0.3 0,0.6 -0.1,0.6 -0.2,0 -0.3,-0.2 -0.4,-0.7 -0.1,-0.7 -0.1,-0.7 -0.6,-0.8 -0.2,0 -0.2,0 -0.2,0.1 0,0.3 -0.4,0.8 -0.7,0.9 -0.2,0 -0.3,-0.1 -0.5,-0.6 -0.1,-0.2 -0.3,-0.5 -0.3,-0.5 -0.1,-0.1 -0.1,-0.1 -0.1,0 0,0.2 0.3,1.1 0.5,1.1 0,0.1 0.1,0.1 0.2,0.1 0.3,0 0.5,0.1 0.5,0.2 0,0.3 -0.2,0.6 -0.5,0.9 -0.4,0.4 -0.5,0.5 -0.5,0.9 0,0.3 0,0.3 0.2,0.2 0,0 0.1,0 0.1,-0.1 0.2,-0.1 0.3,0 0.4,0.1 0,0.1 -0.2,0.5 -0.5,0.8 -0.1,0.1 -0.2,0.1 -0.3,0.1 0,0 -0.1,-0.1 -0.1,-0.3 0,-0.1 0,-0.2 0,-0.2 -0.1,0.1 -0.1,0.1 -0.4,0.6 -0.1,0.2 -0.5,0.5 -0.8,0.5 -0.3,0.1 -0.5,0 -0.5,-0.1 0,0 -0.1,-0.1 -0.1,-0.3 -0.3,-0.4 -0.3,-0.5 -0.2,-1 0,-0.5 0,-0.7 -0.2,-0.8 -0.2,-0.2 -0.3,-0.4 -0.2,-0.5 0,-0.2 0,-0.2 -0.2,-0.2 -0.2,-0.1 -0.7,-0.1 -1.1,0 -0.1,0.1 -0.2,0.1 -0.4,0 -0.4,-0.2 -0.6,-0.7 -0.5,-1.3 0,-0.6 0.1,-0.6 0.2,-0.8 0.1,-0.1 0.2,-0.3 0.3,-0.4 0,-0.1 0.2,-0.2 0.5,-0.3 0,0 0.1,-0.2 0,-0.2 -0.3,0.1 -0.5,-0.2 -0.2,-0.5 0.1,-0.1 0.2,-0.2 0.3,-0.1 0.2,0 0.2,0 0.2,-0.1 0,-0.1 0,-0.2 0,-0.2 0,0 0.2,-0.1 0.2,-0.2 0,0 -0.6,0.3 -0.4,0 0,0 -0.1,0 -0.1,-0.1 -0.2,-0.1 0,-0.2 0.1,-0.3 0.1,0 0.1,0.2 0.2,0.1 -0.1,-0.1 -0.1,-0.3 -0.1,-0.4 0.2,0 0.3,0.2 0.3,0.3 0,0.1 0,0.1 0,0.2 0.1,0 0.1,0.1 0.1,0.1 0,0.1 0,0.1 0.1,0.1 0.3,0 0.4,-0.2 0.4,-0.3 0.4,-0.3 0,-0.2 0,-0.2 -0.1,-0.1 -0.1,-0.3 0.1,-0.5 0.3,-0.3 0.5,-0.3 1,-0.4 0.4,-0.1 0.4,0 0.7,0 0.2,0.1 0.2,0.1 0.1,0.3 l 0,0.1 0.3,-0.1 c 0.1,-0.1 0.3,-0.2 0.5,-0.2 0.1,0 0.2,-0.1 0.2,-0.1 0,-0.1 -0.6,-0.3 -1,-0.5 -0.7,-0.2 -1.9,-0.3 -2.6,-0.1 -0.6,0.1 -1.8,0.5 -1.8,0.7 0,0 0,0.1 0,0.2 0.1,0.3 0.1,0.5 0,0.7 -0.1,0.2 -0.7,0.8 -0.9,0.9 0,0 -0.3,0.1 -0.5,0.2 -0.6,0.2 -0.6,0.2 -0.8,0.5 -0.2,0.6 -0.3,1 -0.3,1.7 l 0,0.6 0.3,0.3 c 0.2,0.2 0.5,0.4 0.7,0.6 0.2,0.2 0.3,0.3 0.5,0.4 0.3,0.1 0.5,0.3 0.5,0.5 0,0.1 0,0.2 -0.1,0.3 -0.1,0.2 -0.1,0.3 0,0.4 0.1,0.3 0.1,0.4 -0.1,0.5 -0.1,0 -0.1,0.1 0,0.3 0,0.1 0.1,0.2 0.1,0.3 0,0.2 0,0.2 0.4,0.5 1.1,0.7 2.3,1 3.5,0.8 z m 1.2,-6.9 c 0.1,-0.1 0.1,-0.2 0,-0.2 0,0 -0.3,-0.2 -0.4,-0.3 -0.1,0 0.9,-0.1 0.2,-0.4 -0.7,-0.3 -0.3,0.7 -0.5,0.5 0,-0.1 -0.2,-0.1 -0.3,0 -0.2,-0.2 -0.4,-0.6 -0.5,-0.6 -0.2,0 0.1,0.4 -0.1,0.4 -0.2,0.1 -0.3,-0.4 -0.5,-0.3 -0.3,0 -0.6,-0.1 -0.8,0.4 0,0.1 0.5,0.1 0.7,0 0.3,0 0.4,0 0.7,0.3 l 0.3,0.2 0.4,0 c 0.3,0 0.5,0 0.5,0 0,0.1 0.2,0.1 0.3,0 z m -1.1,-2 c 0.1,-0.1 0.2,-0.1 0.1,-0.2 0,0 0,-0.1 0,-0.1 0,-0.3 -0.1,-0.2 -0.2,0 -0.1,0.1 -0.7,0.7 -0.1,0.4 0,0 0.1,-0.1 0.2,-0.1 z m 2.9,-0.3 c 0,0 -0.2,-0.1 -0.2,-0.1 0,0 -0.2,0 -0.3,-0.1 -0.2,-0.1 -0.9,-0.1 -0.8,0.1 0,0 0.2,0 0.4,0 0.3,0 0.5,0 0.6,0.1 0.2,0.1 0.2,0.1 0.3,0 z" id="path4563" inkscape:connector-curvature="0" sodipodi:nodetypes="ccsccccccccccccssccsccccscccsccccccccccccccscccccccsccccccscscccccscscccsccccccsccccccccsccccsccccccccccczccszcccccccccccccscccccccccc" />
  </g>
</svg>
