<?xml version="1.0" encoding="UTF-8" standalone="no"?>
<!-- Created with Inkscape (http://www.inkscape.org/) -->

<svg
   xmlns:dc="http://purl.org/dc/elements/1.1/"
   xmlns:cc="http://creativecommons.org/ns#"
   xmlns:rdf="http://www.w3.org/1999/02/22-rdf-syntax-ns#"
   xmlns:svg="http://www.w3.org/2000/svg"
   xmlns="http://www.w3.org/2000/svg"
   xmlns:xlink="http://www.w3.org/1999/xlink"
   xmlns:sodipodi="http://sodipodi.sourceforge.net/DTD/sodipodi-0.dtd"
   xmlns:inkscape="http://www.inkscape.org/namespaces/inkscape"
   width="64"
   height="144"
   id="svg3816"
   version="1.1"
   inkscape:version="0.91 r13725"
   sodipodi:docname="icons.svg"
   inkscape:export-filename="/Users/stuartlowe/Projects/design-a-space-telescope/images/icons.png"
   inkscape:export-xdpi="180"
   inkscape:export-ydpi="180">
  <defs
     id="defs3818">
    <inkscape:perspective
       sodipodi:type="inkscape:persp3d"
       inkscape:vp_x="0 : 64.000008 : 1"
       inkscape:vp_y="0 : 1000 : 0"
       inkscape:vp_z="64 : 64.000008 : 1"
       inkscape:persp3d-origin="32 : 42.666672 : 1"
       id="perspective3924" />
    <linearGradient
       id="linearGradient3775">
      <stop
         id="stop3777"
         offset="0"
         style="stop-color:#939393;stop-opacity:1;" />
      <stop
         id="stop3779"
         offset="1"
         style="stop-color:#f0f0f0;stop-opacity:1;" />
    </linearGradient>
    <linearGradient
       gradientTransform="matrix(0.73584906,0,0,1.0260417,69.831162,551.34231)"
       gradientUnits="userSpaceOnUse"
       y2="213.05951"
       x2="64.520844"
       y1="31.139874"
       x1="64.520836"
       id="linearGradient3781"
       xlink:href="#linearGradient3775-7"
       inkscape:collect="always" />
    <linearGradient
       id="linearGradient3775-7">
      <stop
         id="stop3777-3"
         offset="0"
         style="stop-color:#939393;stop-opacity:1;" />
      <stop
         id="stop3779-6"
         offset="1"
         style="stop-color:#f0f0f0;stop-opacity:1;" />
    </linearGradient>
  </defs>
  <sodipodi:namedview
     id="base"
     pagecolor="#ffffff"
     bordercolor="#666666"
     borderopacity="1.0"
     inkscape:pageopacity="0.0"
     inkscape:pageshadow="2"
     inkscape:zoom="7.6944444"
     inkscape:cx="42.35485"
     inkscape:cy="43.642206"
     inkscape:document-units="px"
     inkscape:current-layer="layer1"
     showgrid="true"
     inkscape:window-width="1280"
     inkscape:window-height="756"
     inkscape:window-x="0"
     inkscape:window-y="0"
     inkscape:window-maximized="0"
     fit-margin-top="0"
     fit-margin-left="0"
     fit-margin-right="0"
     fit-margin-bottom="0"
     showguides="true"
     inkscape:guide-bbox="true"
     inkscape:snap-global="true">
    <inkscape:grid
       type="xygrid"
       id="grid3826"
       empspacing="2"
       visible="true"
       enabled="true"
       snapvisiblegridlinesonly="true"
       spacingx="0.5px"
       spacingy="0.5px" />
  </sodipodi:namedview>
  <metadata
     id="metadata3821">
    <rdf:RDF>
      <cc:Work
         rdf:about="">
        <dc:format>image/svg+xml</dc:format>
        <dc:type
           rdf:resource="http://purl.org/dc/dcmitype/StillImage" />
        <dc:title></dc:title>
      </cc:Work>
    </rdf:RDF>
  </metadata>
  <g
     inkscape:label="Layer 1"
     inkscape:groupmode="layer"
     id="layer1"
     transform="translate(0,-1020.3622)">
    <path
       id="path3076"
       d="m 7.9973984,1102.3924 c -3.5,0 -6,2.5 -6,6 0,3.5 2.5,6 6,6 3.4999996,0 5.9999996,-2.5 5.9999996,-6 0,-3.5 -2.5,-6 -5.9999996,-6 z m -2.34375,2.5 2.34375,2.3438 2.3437496,-2.3438 1.15625,1.1563 -2.3437496,2.3437 2.3437496,2.3438 -1.15625,1.1562 -2.3437496,-2.3437 -2.34375,2.3437 -1.15625,-1.1562 2.34375,-2.3438 -2.34375,-2.3437 1.15625,-1.1563 z"
       style="fill:#ffffff;fill-opacity:1;stroke:none"
       inkscape:connector-curvature="0" />
    <path
       style="fill:#f6f6f6;fill-opacity:1;stroke:none"
       d="m 56.03125,1053.362 c -3.865994,0 -7.03125,2.8579 -7.03125,7 0,4.1422 3.134006,7 7,7 3.865994,0 7,-2.8578 7,-7 0,-4.1421 -3.102756,-7 -6.96875,-7 z m -0.03125,2 c 2,0 4.53125,1.5 4.03125,4 -1,2.5 -3.0625,1 -3.0625,3 l -2,0 c 0,-2.4915 1.03125,-2 2.53125,-3 1,-0.5 0,-2 -1.5,-2 -1.5,0 -2,1 -2,2 l -2,0 c 0,-2.5 2,-4 4,-4 z m -0.03125,8 c 0.552285,0 1,0.4477 1,1 0,0.5523 -0.447715,1 -1,1 -0.552285,0 -1,-0.4477 -1,-1 0,-0.5523 0.447715,-1 1,-1 z"
       id="path3856"
       inkscape:connector-curvature="0"
       sodipodi:nodetypes="ssssssccccsccssssss" />
    <path
       style="fill:#f6f6f6;fill-opacity:1;stroke:none"
       d="m 49,1021.362 0,14 0.5,0 13.5,0 0,-10.5 -3.5,-3.5 -10.5,0 z m 3,8 8,0 0,5 -8,0 0,-5 z m 1,1 0,1 6,0 0,-1 -6,0 z m 0,2 0,1 6,0 0,-1 -6,0 z"
       id="path4011"
       inkscape:connector-curvature="0" />
    <path
       style="fill:#f6f6f6;fill-opacity:1;stroke:none"
       d="m 35.705995,1133.3156 0.387139,2.2412 c -0.329232,0.2613 -0.632055,0.553 -0.888853,0.8755 l -2.215582,-0.3676 -0.749098,1.8662 1.814638,1.2779 c -0.05141,0.423 -0.05722,0.8565 -0.0075,1.2884 l -1.858516,1.311 0.765367,1.8478 2.241199,-0.3871 c 0.270241,0.3405 0.58088,0.6429 0.916377,0.9057 l -0.379576,2.1867 1.849313,0.79 1.306709,-1.8266 c 0.409684,0.046 0.830071,0.039 1.247619,-0.01 l 1.311018,1.8585 1.847759,-0.7654 -0.387139,-2.2412 c 0.329232,-0.2613 0.632059,-0.5529 0.888853,-0.8755 l 2.215582,0.3676 0.749098,-1.8662 -1.814638,-1.2779 c 0.05141,-0.423 0.05722,-0.8565 0.0075,-1.2884 l 1.858516,-1.311 -0.765367,-1.8478 -2.241199,0.3871 c -0.270241,-0.3405 -0.58088,-0.6429 -0.916377,-0.9057 l 0.379576,-2.1867 -1.849313,-0.79 -1.306709,1.8266 c -0.40968,-0.046 -0.830071,-0.039 -1.247619,0.01 l -1.311018,-1.8585 -1.847759,0.7654 z m 2.454613,3.3128 c 0.935448,-0.3875 1.87987,-0.3694 2.692382,-0.033 0.812513,0.3365 1.493121,0.9916 1.880588,1.927 0.387486,0.9355 0.369387,1.8799 0.03283,2.6924 -0.336557,0.8125 -0.991567,1.4931 -1.927015,1.8806 -0.935448,0.3875 -1.879874,0.3694 -2.692382,0.033 -0.812509,-0.3365 -1.493102,-0.9915 -1.880588,-1.927 -0.387467,-0.9354 -0.369383,-1.8799 -0.03283,-2.6924 0.336553,-0.8125 0.991567,-1.4931 1.927015,-1.8806 z"
       id="rect3917"
       inkscape:connector-curvature="0" />
    <g
       id="g6051"
       style="fill:none"
       transform="translate(0,-32.000183)">
      <rect
         style="fill:none;stroke:none"
         id="rect6006"
         width="16"
         height="16"
         x="0"
         y="1084.3622"
         ry="0.066356063"
         rx="0.066356063" />
      <rect
         style="fill:none;stroke:none"
         id="rect5932"
         width="16"
         height="16"
         x="0"
         y="1052.3622"
         ry="0.066356063"
         rx="0.066356063" />
      <rect
         style="fill:none;stroke:none"
         id="rect5972"
         width="16"
         height="16"
         x="16"
         y="1068.3622"
         ry="0.066356063"
         rx="0.066356063" />
      <rect
         ry="0.066356063"
         y="1052.3622"
         x="32"
         height="16"
         width="16"
         id="rect5974"
         style="fill:none;stroke:none"
         rx="0.066356063" />
      <rect
         ry="0.066356063"
         y="1084.3622"
         x="32"
         height="16"
         width="16"
         id="rect6008"
         style="fill:none;stroke:none"
         rx="0.066356063" />
      <rect
         style="fill:none;stroke:none"
         id="rect6010"
         width="16"
         height="16"
         x="16"
         y="1100.3622"
         ry="0.066356063"
         rx="0.066356063" />
      <rect
         transform="matrix(0,-1,1,0,0,0)"
         ry="0.066356063"
         y="6.9337189e-14"
         x="-1132.3622"
         height="16"
         width="16"
         id="rect6012"
         style="fill:none;stroke:none"
         rx="0.066356063" />
      <rect
         style="fill:none;stroke:none"
         id="rect6014"
         width="16"
         height="16"
         x="32"
         y="1116.3622"
         ry="0.066356063"
         rx="0.066356063" />
      <rect
         ry="0.066356063"
         y="1132.3622"
         x="16"
         height="16"
         width="16"
         id="rect6037"
         style="fill:none;stroke:none"
         rx="0.066356063" />
      <rect
         style="fill:none;stroke:none"
         id="rect6039"
         width="16"
         height="16"
         x="-1164.3622"
         y="6.9337189e-14"
         ry="0.066356063"
         transform="matrix(0,-1,1,0,0,0)"
         rx="0.066356063" />
      <rect
         ry="0.066356063"
         y="1148.3622"
         x="32"
         height="16"
         width="16"
         id="rect6041"
         style="fill:none;stroke:none"
         rx="0.066356063" />
    </g>
    <path
       sodipodi:nodetypes="ccccc"
       inkscape:connector-curvature="0"
       id="path3080"
       d="m 60,1107.362 0,3 c -3.333333,0 -5.666667,0 -9,0 l 0,-3 c 3.333333,0 5.666667,0 9,0 z"
       style="fill:#202020;fill-opacity:1;stroke:none" />
    <path
       style="fill:#202020;fill-opacity:1;stroke:none"
       d="m 54,1087.362 3,0 0,3 3,0 0,3 -3,0 0,3 -3,0 0,-3 -3,0 0,-3 3,0 z"
       id="path3082"
       inkscape:connector-curvature="0"
       sodipodi:nodetypes="ccccccccccccc" />
    <text
       xml:space="preserve"
       style="font-style:normal;font-variant:normal;font-weight:normal;font-stretch:normal;font-size:40px;line-height:125%;font-family:'Century Gothic';-inkscape-font-specification:'Century Gothic';letter-spacing:0px;word-spacing:0px;fill:#000000;fill-opacity:1;stroke:none"
       x="50.940369"
       y="1056.569"
       id="text5513"
       sodipodi:linespacing="125%"><tspan
         sodipodi:role="line"
         id="tspan5515"
         x="50.940369"
         y="1056.569" /></text>
    <g
       id="g3097"
       transform="translate(-3,-13.500185)" />
    <g
       id="g3867"
       transform="translate(-16,-16.000185)">
      <path
         sodipodi:nodetypes="ccccc"
         inkscape:connector-curvature="0"
         id="rect3927"
         d="m 50,1038.3622 12,0 0,2 -12,0 z"
         style="fill:#f6f6f6;fill-opacity:1;stroke:none" />
      <path
         sodipodi:nodetypes="ccccc"
         inkscape:connector-curvature="0"
         id="rect3929"
         d="m 50,1042.3622 12,0 0,2 -12,0 z"
         style="fill:#f6f6f6;fill-opacity:1;stroke:none" />
      <path
         sodipodi:nodetypes="ccccc"
         inkscape:connector-curvature="0"
         id="rect3933"
         d="m 50,1046.3622 12,0 0,2 -12,0 z"
         style="fill:#f6f6f6;fill-opacity:1;stroke:none" />
    </g>
    <text
       xml:space="preserve"
       style="font-style:normal;font-variant:normal;font-weight:normal;font-stretch:normal;font-size:40px;line-height:125%;font-family:'Century Gothic';-inkscape-font-specification:'Century Gothic';letter-spacing:0px;word-spacing:0px;fill:#000000;fill-opacity:1;stroke:none"
       x="69.375"
       y="1062.9871"
       id="text3869"
       sodipodi:linespacing="125%"><tspan
         sodipodi:role="line"
         id="tspan3871"
         x="69.375"
         y="1062.9871" /></text>
    <g
       style="fill:#000000;fill-opacity:1"
       id="g3098"
       transform="matrix(1,0,0,-1,-35.5,2234.7242)" />
    <path
       inkscape:connector-curvature="0"
       style="fill:#f6f6f6;fill-opacity:1;stroke:none"
       d="m 55,1069.362 c -2.761424,0 -5,2.2386 -5,5 0,2.7614 2.238576,5 5,5 2.761424,0 5,-2.2386 5,-5 0,-2.7614 -2.238576,-5 -5,-5 z m 0,2 c 1.5,0 3,1 3,3 0,2 -1.5,3 -3,3 -1.5,0 -3,-1 -3,-3 0,-2 1.5,-3 3,-3 z"
       id="path4056"
       sodipodi:nodetypes="ssssszzzzz" />
    <path
       style="fill:#f6f6f6;fill-opacity:1;stroke:none"
       d="m 62.5,1080.862 -1.5,1.5 -4,-4 1.5,-1.5 z"
       id="path4070"
       inkscape:connector-curvature="0" />
    <path
       sodipodi:nodetypes="ssssszzzzz"
       id="path3870"
       d="m 55,1069.362 c -2.761424,0 -5,2.2386 -5,5 0,2.7614 2.238576,5 5,5 2.761424,0 5,-2.2386 5,-5 0,-2.7614 -2.238576,-5 -5,-5 z m 0,2 c 1.5,0 3,1 3,3 0,2 -1.5,3 -3,3 -1.5,0 -3,-1 -3,-3 0,-2 1.5,-3 3,-3 z"
       style="fill:#f6f6f6;fill-opacity:1;stroke:none"
       inkscape:connector-curvature="0" />
    <g
       transform="translate(16,-112.00018)"
       id="g3295"
       style="fill:#f6f6f6;fill-opacity:1">
      <g
         id="g3297"
         style="fill:#f6f6f6;fill-opacity:1">
        <path
           id="path3299"
           d="m 17,1158.3622 0,4 6,0 -2,-2 -3,0 0,-2 z m 8,4 6,0 0,-4 -1,0 0,2 -3,0 z"
           style="fill:#f6f6f6;fill-opacity:1;stroke:none"
           inkscape:connector-curvature="0"
           sodipodi:nodetypes="cccccccccccccc" />
      </g>
      <g
         style="fill:#f6f6f6;fill-opacity:1"
         id="g3301"
         transform="matrix(1,0,0,-1,-3,2315.7244)">
        <path
           style="fill:#f6f6f6;fill-opacity:1;stroke:none"
           d="m 27,1154.3622 -5,5 3,0 0,5 4,0 0,-5 3,0 z"
           id="path3303"
           inkscape:connector-curvature="0"
           sodipodi:nodetypes="cccccccc" />
      </g>
    </g>
    <path
       style="fill:#76e300;fill-opacity:1;stroke:none"
       d="m 22,1023.362 c -2,0 -3,1 -3,1 l 0,1.3125 c -1.129217,0.2954 -2,0.6875 -2,0.6875 l 0,7 c 0,0 1,-0.5 3,-0.5 2,0 4.5,1 6.5,1 2,0 2.5,-0.5 2.5,-0.5 l 0,-1.5937 c 1.187061,-0.145 2,-0.4063 2,-0.4063 l 0,-7.5 c 0,0 -1.5,0.5 -3.5,0.5 -2,0 -3.5,-1 -5.5,-1 z m 3.375,1.5313 c -0.119256,-0.015 -0.248546,-0.031 -0.375,-0.031 -0.805415,0 -1.51153,0.3773 -1.96875,0.9688 -1.052471,-0.2331 -2.095293,-0.4688 -3.03125,-0.4688 -0.0312,0 0.03119,0.4995 0,0.5 0.09375,0 1,-0.5 0.828125,-1.3594 1.171875,-0.6406 2.955574,0.044 4.546875,0.3907 z m 0.34375,0.062 c 1.020877,0.2191 1.020208,0.4062 1.78125,0.4062 0.514286,0 0.93025,-0.039 1.28125,-0.094 0.141623,0.5365 0.540614,0.8125 1.21875,0.8125 l 0,3.5 c -0.468563,0 -0.788219,0.1486 -1,0.4062 l 0,-4.125 c 0,0 -0.141917,0.3642 -1.71875,0.4688 -0.295142,-0.6483 -0.870869,-1.1645 -1.5625,-1.375 z m -1.21875,0.4062 1,0 0,0.5 0,0.5 0.5,-0.031 c -0.640173,-0.045 -1.309206,-0.1658 -2,-0.3125 l 0.5,0.3437 0,-0.5 z m 2,2 c 0.514286,0 -0.06975,-0.039 0.28125,-0.094 0.141623,0.5365 0.540614,1.5937 1.21875,1.5937 l 0,2.5 c -0.821864,0 -1.247423,0.6182 -1.28125,1.4063 -0.337985,0.057 0.262339,0.094 -0.21875,0.094 -0.880696,0 -2.114708,-0.2746 -3.34375,-0.5312 1.3052,-0.083 2.34375,-1.1425 2.34375,-2.4688 0,-1.3807 -1.119288,-3 -2.5,-3 -1.380712,0 -2.5,1.1193 -2.5,2.5 0,0.9824 0.581927,2.3101 1.40625,2.7188 -0.705053,-0.1311 -1.37899,-0.2188 -1.90625,-0.2188 -0.67875,0 -0.508824,-0.095 -1,0 -0.118757,-0.596 -0.285279,-1 -1,-1 l 0,-2.5 c 0.75,0 1.15625,-1.0625 1.25,-1.7187 1.25,-0.7813 4.983979,0.6726 7.25,0.7187 z m -4,0 1,0 0,0.5 0.5,0 0.5,1 -1.5,0 1,0.5 0.5,1 -0.5,1 -0.5,0 0,0.5 -1,0 0,-0.5 -0.5,0 -0.5,-1 1.5,0 -1,-0.5 -0.5,-1 0.5,-1 0.5,0 z"
       id="path4255"
       inkscape:connector-curvature="0"
       sodipodi:nodetypes="sccccssccccsscscsccccscccccccccccccccccccccscssscscccccccccccccccccccccccccc" />
    <g
       transform="translate(4.5,-41.781455)"
       id="g4281"
       style="fill:#ff0000;stroke:none" />
    <path
       style="fill:#aaa5d1;fill-opacity:1;stroke:none"
       d="m 24,1038.362 c -1.380712,0 -2.5,1.1194 -2.5,2.5 0,0.8216 0.388193,1.5443 1,2 -0.195367,0.1455 -0.354477,0.3046 -0.5,0.5 l -2,0 -2,7 12,0 -2,-7 -2,0 c -0.145523,-0.1954 -0.304633,-0.3545 -0.5,-0.5 0.611807,-0.4557 1,-1.1784 1,-2 0,-1.3806 -1.119287,-2.5 -2.5,-2.5 z m 0,1 c 0.833333,0 1.5,0.6667 1.5,1.5 0,0.8333 -0.666667,1.5 -1.5,1.5 -0.833333,0 -1.5,-0.6667 -1.5,-1.5 0,-0.8333 0.666667,-1.5 1.5,-1.5 z"
       id="path4298"
       inkscape:connector-curvature="0" />
    <path
       style="fill:#69dfff;fill-opacity:1;stroke:none"
       d="m 21.5,1070.362 0,1 c 0.375,0 0.476562,0.01 0.5,0.2188 0.0078,0.07 0,0.1562 0,0.2812 l 0,2.5 c 0,0 -5.5,7 -5,7.5 0.5,0.5 7,0.5 7,0.5 0,0 6.5,0 7,-0.5 0.5,-0.5 -5,-7.5 -5,-7.5 l 0,-2.5 0,-0.2812 c 0.02344,-0.211 0.125,-0.2188 0.5,-0.2188 l 0,-1 c -1.28551,0 -1.442465,0.056 -1.46875,1 l -0.03125,0 0,0.5 0,3 c 0,0 4.436508,5.58 4,6 -0.436508,0.42 -5,0.5 -5,0.5 0,0 -4.563492,-0.08 -5,-0.5 -0.436508,-0.42 4,-6 4,-6 l 0,-3 0,-0.5 -0.03125,0 c -0.02629,-0.9441 -0.18324,-1 -1.46875,-1 z m 1,6.5 c 0,0 -3,3 -2.5,3.5 0.5,0.5 7.5,0.5 8,0 0.5,-0.5 -2.5,-3.5 -2.5,-3.5 0,0 -0.5,0.5 -1.5,0.5 -1,0 -1.5,-0.5 -1.5,-0.5 z m 0.5,1 c 0.276142,0 0.5,0.2239 0.5,0.5 0,0.2762 -0.223858,0.5 -0.5,0.5 -0.276142,0 -0.5,-0.2238 -0.5,-0.5 0,-0.2761 0.223858,-0.5 0.5,-0.5 z m 2,0 c 0.276142,0 0.5,0.2239 0.5,0.5 0,0.2762 -0.223858,0.5 -0.5,0.5 -0.276142,0 -0.5,-0.2238 -0.5,-0.5 0,-0.2761 0.223858,-0.5 0.5,-0.5 z m -1,1 c 0.276142,0 0.5,0.2239 0.5,0.5 0,0.2762 -0.223858,0.5 -0.5,0.5 -0.276142,0 -0.5,-0.2238 -0.5,-0.5 0,-0.2761 0.223858,-0.5 0.5,-0.5 z m -1.5,0.5 c 0.276142,0 0.5,0.2239 0.5,0.5 0,0.2762 -0.223858,0.5 -0.5,0.5 -0.276142,0 -0.5,-0.2238 -0.5,-0.5 0,-0.2761 0.223858,-0.5 0.5,-0.5 z"
       id="path4392"
       inkscape:connector-curvature="0"
       sodipodi:nodetypes="ccsscscscccccccccscsccccccsscscssssssssssssssssssss" />
    <path
       style="fill:#ff4a4a;fill-opacity:1;stroke:none"
       d="m 24,1102.362 c -3.5,0 -6,2.5 -6,6 0,3.5 2.5,6 6,6 3.5,0 6,-2.5 6,-6 0,-3.5 -2.5,-6 -6,-6 z m -2.34375,2.5 2.34375,2.3438 2.34375,-2.3438 1.15625,1.1563 -2.34375,2.3437 2.34375,2.3438 -1.15625,1.1562 -2.34375,-2.3437 -2.34375,2.3437 -1.15625,-1.1562 2.34375,-2.3438 -2.34375,-2.3437 1.15625,-1.1563 z"
       id="path4474"
       inkscape:connector-curvature="0" />
    <path
       style="fill:#ffee00;fill-opacity:1;stroke:none"
       d="m 24,1118.362 c -0.5,0 -6.5,10.5455 -6,11 0.5,0.4546 11.5,0.4546 12,0 0.5,-0.4545 -5.5,-11 -6,-11 z m -1,3 2,0 c 0,2 0.03125,-0.7333 0,4 l -2,0 c 0.03125,-3.7333 0,-2 0,-4 z m 1,5.125 c 0.552285,0 1,0.422 1,0.9375 0,0.5155 -0.447715,0.9375 -1,0.9375 -0.552285,0 -1,-0.422 -1,-0.9375 0,-0.5155 0.447715,-0.9375 1,-0.9375 z"
       id="path4484"
       inkscape:connector-curvature="0" />
    <path
       style="fill:#f6f6f6;fill-opacity:1"
       d="m 39.00272,1098.3036 c -1.500991,-0.263 -2.944682,-1.1485 -3.827451,-2.3474 -2.08882,-2.8366 -1.340026,-6.7991 1.640127,-8.6795 2.356546,-1.4866 5.451924,-1.1357 7.431867,0.8433 0.816688,0.8161 1.327956,1.7187 1.607065,2.8376 0.162479,0.6512 0.204894,1.7181 0.09379,2.3589 -0.423873,2.445 -2.147537,4.3016 -4.551302,4.9022 -0.602941,0.1505 -1.780843,0.1923 -2.394093,0.085 z m 1.576937,-0.6707 c 0.970541,-0.1111 1.881822,-0.4765 2.661627,-1.0676 0.161223,-0.1221 0.214678,-0.1937 0.215758,-0.289 0.0015,-0.1419 0.200525,-0.6977 0.308705,-0.8625 0.03873,-0.059 0.159594,-0.1457 0.268602,-0.1923 0.162325,-0.07 0.215759,-0.1257 0.295247,-0.3104 0.13433,-0.3121 0.172779,-0.4807 0.1096,-0.4807 -0.02834,0 -0.05149,-0.05 -0.05149,-0.1097 0,-0.1101 0.249583,-0.3747 0.611573,-0.6483 0.0936,-0.07 0.181796,-0.1589 0.195979,-0.1957 0.116676,-0.3038 0.138988,-1.7845 0.02687,-1.7845 -0.07199,0 -0.09807,0.2946 -0.05156,0.5828 0.05754,0.3564 0.01363,0.5958 -0.112607,0.6142 -0.176338,0.026 -0.297221,-0.1788 -0.395358,-0.669 -0.145521,-0.7267 -0.156353,-0.7407 -0.634976,-0.8242 -0.1428,-0.025 -0.151,-0.019 -0.151,0.1136 0,0.3098 -0.389878,0.7881 -0.69726,0.8556 -0.231632,0.051 -0.365128,-0.081 -0.580415,-0.5727 -0.102213,-0.2335 -0.222432,-0.4605 -0.26715,-0.5045 -0.07701,-0.076 -0.0813,-0.075 -0.0813,0.018 0,0.2395 0.313535,1.0589 0.436006,1.1397 0.02851,0.019 0.152183,0.034 0.274832,0.035 0.305007,9e-4 0.497447,0.1053 0.496128,0.2688 -0.0018,0.2241 -0.172166,0.5118 -0.479599,0.8099 -0.415153,0.4025 -0.494674,0.5486 -0.494888,0.9091 -1.85e-4,0.2829 0.0035,0.2922 0.104364,0.2606 0.0575,-0.018 0.145778,-0.061 0.196181,-0.095 0.136506,-0.094 0.291999,-0.079 0.327335,0.033 0.03403,0.1072 -0.222857,0.5511 -0.472571,0.8166 -0.122332,0.1301 -0.164505,0.149 -0.255535,0.1148 -0.09352,-0.035 -0.108597,-0.072 -0.10604,-0.2564 0.0019,-0.1326 -0.01602,-0.2093 -0.04646,-0.1993 -0.04814,0.015 -0.09114,0.077 -0.368926,0.5213 -0.163644,0.262 -0.527651,0.5112 -0.845248,0.5788 -0.260012,0.055 -0.484633,0 -0.484633,-0.1106 0,-0.037 -0.06025,-0.1804 -0.133892,-0.3203 -0.23582,-0.4478 -0.256281,-0.5557 -0.191335,-1.0081 0.06654,-0.4639 0.02778,-0.6572 -0.168377,-0.8403 -0.172174,-0.1606 -0.26014,-0.3529 -0.228114,-0.4987 0.02555,-0.1162 0.01193,-0.1299 -0.186873,-0.1883 -0.226755,-0.067 -0.71695,-0.046 -1.058563,0.047 -0.152962,0.042 -0.20924,0.033 -0.394609,-0.059 -0.398841,-0.1981 -0.600768,-0.6701 -0.542243,-1.2677 0.05465,-0.558 0.07578,-0.6278 0.251646,-0.8306 0.09504,-0.1098 0.199766,-0.2646 0.232727,-0.344 0.0544,-0.1312 0.263216,-0.2709 0.514733,-0.3446 0.04086,-0.012 0.130083,-0.1334 0.02769,-0.1664 -0.365902,0.085 -0.485562,-0.2564 -0.236378,-0.5054 0.137103,-0.137 0.188784,-0.1599 0.325228,-0.144 0.150462,0.018 0.162221,0.011 0.162221,-0.1081 0,-0.069 0.02091,-0.1402 0.04646,-0.1558 0.02555,-0.016 0.20114,-0.1324 0.20114,-0.1484 0,-0.051 -0.645598,0.2587 -0.396687,-0.094 -0.03636,0.058 -0.09172,0.027 -0.156087,-0.037 -0.121283,-0.1211 0.04095,-0.2506 0.140125,-0.2747 0.06286,-7e-4 0.134553,0.179 0.18227,0.081 -0.11405,-0.1593 -0.08644,-0.367 -0.03933,-0.3762 0.178824,-0.075 0.207953,0.1092 0.207953,0.2519 0,0.055 0.03136,0.1275 0.06969,0.1592 0.03833,0.033 0.06969,0.11 0.06969,0.1739 0,0.1059 0.01309,0.1136 0.148764,0.087 0.207596,-0.042 0.352636,-0.1901 0.34444,-0.353 0.37205,-0.2488 -0.02208,-0.1484 -0.04088,-0.1673 -0.0886,-0.088 -0.01932,-0.2556 0.195361,-0.4711 0.297837,-0.299 0.471399,-0.3768 0.973164,-0.4361 0.379226,-0.045 0.43047,-0.041 0.632924,0.049 0.206026,0.09 0.218486,0.1064 0.192439,0.2366 l -0.02785,0.139 0.251443,-0.1341 c 0.138294,-0.074 0.357283,-0.1611 0.486644,-0.1942 0.12936,-0.033 0.235202,-0.079 0.235202,-0.1009 0,-0.053 -0.584248,-0.3213 -0.969324,-0.4469 -0.728185,-0.2378 -1.87903,-0.3132 -2.619767,-0.1715 -0.640236,0.1223 -1.765059,0.577 -1.827121,0.7387 -0.01245,0.033 0.0094,0.1353 0.04851,0.229 0.08886,0.2124 0.09146,0.5098 0.0059,0.6743 -0.08557,0.1643 -0.708961,0.7648 -0.887218,0.8547 -0.07666,0.038 -0.317095,0.128 -0.534301,0.1987 -0.59906,0.1954 -0.623686,0.2133 -0.759498,0.552 -0.228566,0.5705 -0.315475,0.9917 -0.340974,1.6526 l -0.02418,0.6268 0.356151,0.2966 c 0.195882,0.163 0.483567,0.4387 0.639299,0.6125 0.211376,0.2358 0.346236,0.3416 0.532022,0.4168 0.273224,0.1108 0.47993,0.3173 0.47993,0.4794 0,0.057 -0.03374,0.2031 -0.07498,0.3239 -0.0694,0.2036 -0.06918,0.2352 0.0029,0.4236 0.08711,0.2279 0.04957,0.3656 -0.113742,0.4174 -0.113881,0.037 -0.119579,0.1716 -0.01399,0.3326 0.04344,0.066 0.09048,0.2061 0.104537,0.311 0.02417,0.1804 0.04864,0.206 0.453565,0.476 1.030379,0.6867 2.283892,0.9923 3.499698,0.853 z m 1.179677,-6.9419 c 0.09519,-0.094 0.09245,-0.1563 -0.0083,-0.1858 -0.04471,-0.014 -0.313092,-0.2167 -0.407332,-0.2638 -0.140571,-0.069 0.934465,-0.1418 0.201748,-0.4408 -0.732717,-0.2991 -0.356252,0.6726 -0.462609,0.5396 -0.09116,-0.1158 -0.278437,-0.1406 -0.359274,-0.067 -0.16081,-0.1781 -0.415453,-0.5345 -0.514808,-0.5413 -0.1445,-0.01 0.162676,0.324 -0.03835,0.3917 -0.201025,0.068 -0.306929,-0.393 -0.569147,-0.3641 -0.293176,0.033 -0.609564,-0.1008 -0.721311,0.4717 -6.23e-4,0.073 0.425727,0.023 0.626867,0 0.323473,-0.043 0.43248,0 0.729876,0.2658 l 0.261449,0.2366 0.453192,-0.033 c 0.305561,-0.022 0.463227,-0.016 0.483996,0.017 0.04585,0.074 0.240574,0.059 0.323998,-0.023 z m -1.110503,-2.0023 c 0.131002,-0.061 0.161528,-0.1 0.141594,-0.1739 -0.01398,-0.053 -0.0257,-0.1207 -0.02605,-0.1526 0.021,-0.2294 -0.100649,-0.1805 -0.219082,-0.01 -0.107211,0.1576 -0.670559,0.7327 -0.08512,0.4123 0.01045,-0.01 0.09681,-0.036 0.188661,-0.079 z m 2.877898,-0.2429 c 0.03286,-0.053 -0.14532,-0.1569 -0.205533,-0.1197 -0.02334,0.014 -0.132673,-0.021 -0.24296,-0.079 -0.272373,-0.143 -0.892959,-0.1323 -0.802528,0.014 0.0147,0.024 0.197984,0.044 0.407291,0.044 0.2833,10e-5 0.422121,0.023 0.543174,0.088 0.190303,0.1019 0.263013,0.115 0.300556,0.054 z"
       id="path4563"
       inkscape:connector-curvature="0"
       sodipodi:nodetypes="ccsccccccccccccssccsccccscccsccccccccccccccscccccccsccccccscscccccscscccsccccccsccccccccsccccsccccccccccczccszcccccccccccccscccccccccc" />
    <g
       id="g3073"
       style="fill:#f6f6f6;fill-opacity:1"
       transform="matrix(0.3333332,-0.31249971,0.3333332,0.31249971,-333.12057,758.93666)" />
    <path
       sodipodi:nodetypes="cccccccc"
       inkscape:connector-curvature="0"
       id="path3081"
       d="m 42,1126.362 4,0 -1,1 1.999999,2 -2.000001,2 -1.999999,-2 -1,1 z"
       style="fill:#f6f6f6;fill-opacity:1;stroke:none" />
    <path
       style="fill:#f6f6f6;fill-opacity:1;stroke:none"
       d="m 37.999999,1126.362 -3.999999,0 1,1 -1.999999,2 1.999999,2 1.999999,-2 1,1 z"
       id="path3083"
       inkscape:connector-curvature="0"
       sodipodi:nodetypes="cccccccc" />
    <path
       sodipodi:nodetypes="cccccccc"
       inkscape:connector-curvature="0"
       id="path3085"
       d="m 37.999999,1122.362 -3.999999,0 1,-1 -1.999999,-2 1.999999,-2 1.999999,2 1,-1 z"
       style="fill:#f6f6f6;fill-opacity:1;stroke:none" />
    <path
       style="fill:#f6f6f6;fill-opacity:1;stroke:none"
       d="m 41.999999,1122.362 3.999998,0 -0.999999,-1 1.999999,-2 -1.999999,-2 -1.999999,2 -1,-1 z"
       id="path3087"
       inkscape:connector-curvature="0"
       sodipodi:nodetypes="cccccccc" />
    <path
       style="fill:#f6f6f6;fill-opacity:1;stroke:none"
       d="m 46.999999,1115.362 -4,0 1,-1 -1.999999,-2 2.000001,-2 1.999999,2 1,-1 z"
       id="path3103"
       inkscape:connector-curvature="0"
       sodipodi:nodetypes="cccccccc" />
    <path
       sodipodi:nodetypes="cccccccc"
       inkscape:connector-curvature="0"
       id="path3105"
       d="m 32.999999,1115.362 3.999999,0 -1,-1 1.999999,-2 -1.999999,-2 -1.999999,2 -1,-1 z"
       style="fill:#f6f6f6;fill-opacity:1;stroke:none" />
    <path
       style="fill:#f6f6f6;fill-opacity:1;stroke:none"
       d="m 32.999999,1101.362 3.999999,0 -1,1 1.999999,2 -1.999999,2 -1.999999,-2 -1,1 z"
       id="path3107"
       inkscape:connector-curvature="0"
       sodipodi:nodetypes="cccccccc" />
    <path
       sodipodi:nodetypes="cccccccc"
       inkscape:connector-curvature="0"
       id="path3109"
       d="m 46.999999,1101.362 -3.999998,0 0.999999,1 -1.999999,2 1.999999,2 1.999999,-2 1,1 z"
       style="fill:#f6f6f6;fill-opacity:1;stroke:none" />
    <path
       style="fill:#ffffff;fill-opacity:1;stroke:none"
       d="m 23,1086.362 c -0.5,0 -1,0.5 -1,1 l 0,3 -3,0 c -0.5,0 -1,0.5 -1,1 l 0,6 c 0,0.5 0.5,1 1,1 l 6,0 c 0.5,0 1,-0.5 1,-1 l 0,-3 3,0 c 0.5,0 1,-0.5 1,-1 l 0,-6 c 0,-0.5 -0.5,-1 -1,-1 l -6,0 z m 0.5,1 5,0 c 0.335756,0 0.5,0.173 0.5,0.5 l 0,5 c 0,0.327 -0.164243,0.5 -0.5,0.5 l -2.5,0 0,-2 c 0,-0.5 -0.5,-1 -1,-1 l -2.0625,0 0.0625,-2.5 c 0.0076,-0.3269 0.164243,-0.5 0.5,-0.5 z m 1,0.5 c -0.552285,0 -1,0.4477 -1,1 0,0.5523 0.447715,1 1,1 0.552285,0 1,-0.4477 1,-1 0,-0.5523 -0.447715,-1 -1,-1 z m 3,0 c -0.552285,0 -1,0.4477 -1,1 0,0.5523 0.447715,1 1,1 0.552285,0 1,-0.4477 1,-1 0,-0.5523 -0.447715,-1 -1,-1 z m 0,3 c -0.552285,0 -1,0.4477 -1,1 0,0.5523 0.447715,1 1,1 0.552285,0 1,-0.4477 1,-1 0,-0.5523 -0.447715,-1 -1,-1 z m -8,0.5 5,0 c 0.335756,0 0.5,0.173 0.5,0.5 l 0,5 c 0,0.327 -0.164243,0.5 -0.5,0.5 l -5,0 c -0.335778,0 -0.632578,-0.2668 -0.625,-0.5937 L 19,1091.862 c 0.0076,-0.3269 0.164243,-0.5 0.5,-0.5 z m 1,0.5 c -0.552285,0 -1,0.4477 -1,1 0,0.5523 0.447715,1 1,1 0.552285,0 1,-0.4477 1,-1 0,-0.5523 -0.447715,-1 -1,-1 z m 1.5,1.5 c -0.552285,0 -1,0.4477 -1,1 0,0.5523 0.447715,1 1,1 0.552285,0 1,-0.4477 1,-1 0,-0.5523 -0.447715,-1 -1,-1 z m 1.5,1.5 c -0.552285,0 -1,0.4477 -1,1 0,0.5523 0.447715,1 1,1 0.552285,0 1,-0.4477 1,-1 0,-0.5523 -0.447715,-1 -1,-1 z"
       id="path4506"
       inkscape:connector-curvature="0" />
    <path
       sodipodi:nodetypes="ccccccccccccc"
       inkscape:connector-curvature="0"
       id="path3935"
       d="m 50,1136.362 2,-2 4,4 4,-4 2,2 -4,4 4,4 -2,2 -4,-4 -4,4 -2,-2 4,-4 z"
       style="fill:#202020;fill-opacity:1;stroke:none" />
    <rect
       style="fill:#f6f6f0;fill-opacity:0;stroke:none"
       id="rect3091"
       width="12"
       height="2"
       x="50"
       y="1022.362"
       ry="1"
       rx="1" />
    <path
       style="fill:#f6f6f6;fill-opacity:1;stroke:none"
       d="m 40,1083.362 c 0,0 7,-2 7,-7 0,-5 -4,-7 -7,-7 -3,0 -5,2 -5,2 l -2,-2 0,8 8,0 -2,-2 c 0,0 0.5,-1.5 2,-1.5 1.5,0 3,0.5 3,3.5 0,3 -4,6 -4,6 z"
       id="path4656"
       inkscape:connector-curvature="0"
       sodipodi:nodetypes="czzccccczzc" />
    <g
       id="g4298"
       transform="translate(0,-16.0002)">
      <g
         transform="translate(16,-79.999985)"
         style="fill:#f6f6f6;fill-opacity:1"
         id="g3864">
        <path
           sodipodi:nodetypes="cccccccccccccc"
           inkscape:connector-curvature="0"
           style="fill:#f6f6f6;fill-opacity:1;stroke:none"
           d="m 17,1158.3622 0,4 7,0 0,-2 -6,0 0,-2 z m 6,4 8,0 0,-4 -1,0 0,2 -7,0 z"
           id="path3866" />
      </g>
      <g
         transform="matrix(1,0,0,-1,13,2233.7244)"
         id="g3868"
         style="fill:#f6f6f6;fill-opacity:1">
        <path
           sodipodi:nodetypes="cccccccc"
           inkscape:connector-curvature="0"
           id="path3871"
           d="m 27,1164.3622 -5,-5 3,0 0,-5 4,0 0,5 3,0 z"
           style="fill:#f6f6f6;fill-opacity:1;stroke:none" />
      </g>
    </g>
    <path
       sodipodi:nodetypes="cszccccczsc"
       inkscape:connector-curvature="0"
       id="path3882"
       d="m 51,1041.362 c 2,-6 12,-5 12,3 0,5 -4,7 -7,7 -3,0 -5,-2 -5,-2 l -2,2 0,-8 8,0 -2,2 c 0,0 0.5,1.5 2,1.5 1.5,0 3,-0.5 3,-3.5 0,-5 -6,-5 -9,-2 z"
       style="fill:#f6f6f6;fill-opacity:1;stroke:none" />
    <g
       transform="translate(0,-80.000167)"
       id="g3842"
       style="fill:#fac900;fill-opacity:1">
      <path
         sodipodi:nodetypes="cccccccccccc"
         inkscape:connector-curvature="0"
         id="path3844"
         transform="translate(0,1036.3622)"
         d="m 18,97.999982 0,3.999998 0,8 12,0 0,-8 0,-3.999998 z m 1,3.999998 10,0 0,7 -10,0 z"
         style="fill:#fac900;fill-opacity:1;stroke:none" />
      <path
         sodipodi:nodetypes="ccccccccccccc"
         inkscape:connector-curvature="0"
         id="path3846"
         d="m 21,1139.3622 0,1 3,0 0,1 -2,0 0,1 2,0 0,1 -3,0 0,1 4,0 0,-5 z"
         style="fill:#fac900;fill-opacity:1;stroke:none" />
      <rect
         y="1139.3622"
         x="26"
         height="5.0000005"
         width="1"
         id="rect3848"
         style="fill:#fac900;fill-opacity:1;stroke:none" />
    </g>
    <path
       id="path3857"
       d="m 28.1875,1133.9867 c -0.984375,0.1406 -2.09375,1.2813 -2.09375,1.2813 -0.101216,0.063 -0.201221,0.1562 -0.28125,0.25 -0.02492,0.029 -0.0408,0.063 -0.0625,0.094 l -2.875,2.875 -1.15625,-0.5312 1.78125,-1.5938 -2,-1 -4.5,4 2,1 2.15625,-1.9375 1.21875,0.5625 -0.875,0.875 -1,0 -2.5,2.5 0,2 1.5,1.5 2,0 0.5,-0.5 2,-2 0,-1 1.78125,-1.7812 1.03125,0.4687 -2.3125,2.3125 2.5,1.5 4.5,-5 -2.5,-1 -1.6875,1.6875 -1.03125,-0.4687 1.90625,-1.9063 c 0.133358,-0.07 0.274123,-0.1319 0.375,-0.25 0.489252,-0.5729 0.326132,-1.5261 -0.3125,-2.1875 0.716003,-0.3842 1.401232,-0.9113 0.84375,-1.4687 -0.25,-0.25 -0.578125,-0.3282 -0.90625,-0.2813 z"
       style="fill:#f6dc8c;fill-opacity:1;stroke:none"
       inkscape:connector-curvature="0" />
    <path
       style="fill:#f6f6f6;fill-opacity:1;stroke:none"
       d="m 50,1120.362 2,-2 4,4 4,-4 2,2 -4,4 4,4 -2,2 -4,-4 -4,4 -2,-2 4,-4 z"
       id="path3908"
       inkscape:connector-curvature="0"
       sodipodi:nodetypes="ccccccccccccc" />
    <path
       sodipodi:nodetypes="sccccssccccsscscsccccscccccccccccccccccccccscssscscccccccccccccccccccccccccc"
       inkscape:connector-curvature="0"
       id="path3910"
       d="m 5.9947968,1023.4227 c -2,0 -3,1 -3,1 l 0,1.3125 c -1.129217,0.2954 -2.00000002,0.6875 -2.00000002,0.6875 l 0,7 c 0,0 1.00000002,-0.5 3.00000002,-0.5 2,0 4.5,1 6.5000002,1 2,0 2.5,-0.5 2.5,-0.5 l 0,-1.5937 c 1.187061,-0.145 2,-0.4063 2,-0.4063 l 0,-7.5 c 0,0 -1.5,0.5 -3.5,0.5 -2.0000002,0 -3.5000002,-1 -5.5000002,-1 z m 3.375,1.5313 c -0.119256,-0.015 -0.248546,-0.031 -0.375,-0.031 -0.805415,0 -1.51153,0.3773 -1.96875,0.9688 -1.052471,-0.2331 -2.095293,-0.4688 -3.03125,-0.4688 -0.0312,0 0.03119,0.4995 0,0.5 0.09375,0 1,-0.5 0.828125,-1.3594 1.171875,-0.6406 2.955574,0.044 4.546875,0.3907 z m 0.34375,0.062 c 1.0208772,0.2191 1.0202082,0.4062 1.7812502,0.4062 0.514286,0 0.93025,-0.039 1.28125,-0.094 0.141623,0.5365 0.540614,0.8125 1.21875,0.8125 l 0,3.5 c -0.468563,0 -0.788219,0.1486 -1,0.4062 l 0,-4.125 c 0,0 -0.141917,0.3642 -1.71875,0.4688 -0.295142,-0.6483 -0.870869,-1.1645 -1.5625002,-1.375 z m -1.21875,0.4062 1,0 0,0.5 0,0.5 0.5,-0.031 c -0.640173,-0.045 -1.309206,-0.1658 -2,-0.3125 l 0.5,0.3437 0,-0.5 z m 2.0000002,2 c 0.514286,0 -0.06975,-0.039 0.28125,-0.094 0.141623,0.5365 0.540614,1.5937 1.21875,1.5937 l 0,2.5 c -0.821864,0 -1.247423,0.6182 -1.28125,1.4063 -0.337985,0.057 0.262339,0.094 -0.21875,0.094 -0.8806962,0 -2.1147082,-0.2746 -3.3437502,-0.5312 1.3052,-0.083 2.34375,-1.1425 2.34375,-2.4688 0,-1.3807 -1.119288,-3 -2.5,-3 -1.380712,0 -2.5,1.1193 -2.5,2.5 0,0.9824 0.581927,2.3101 1.40625,2.7188 -0.705053,-0.1311 -1.37899,-0.2188 -1.90625,-0.2188 -0.67875,0 -0.508824,-0.094 -1,0 -0.118757,-0.596 -0.285279,-1 -1,-1 l 0,-2.5 c 0.75,0 1.15625,-1.0625 1.25,-1.7187 1.25,-0.7813 4.983979,0.6726 7.2500002,0.7187 z m -4.0000002,0 1,0 0,0.5 0.5,0 0.5,1 -1.5,0 1,0.5 0.5,1 -0.5,1 -0.5,0 0,0.5 -1,0 0,-0.5 -0.5,0 -0.5,-1 1.5,0 -1,-0.5 -0.5,-1 0.5,-1 0.5,0 z"
       style="fill:#ffffff;fill-opacity:1;stroke:none" />
    <path
       inkscape:connector-curvature="0"
       id="path3912"
       d="m 7.9947968,1038.4227 c -1.380712,0 -2.5,1.1194 -2.5,2.5 0,0.8216 0.388193,1.5443 1,2 -0.195367,0.1455 -0.354477,0.3046 -0.5,0.5 l -2,0 -2,7 12.0000002,0 -2,-7 -2.0000002,0 c -0.145523,-0.1954 -0.304633,-0.3545 -0.5,-0.5 0.6118072,-0.4557 1.0000002,-1.1784 1.0000002,-2 0,-1.3806 -1.1192872,-2.5 -2.5000002,-2.5 z m 0,1 c 0.833333,0 1.5,0.6667 1.5,1.5 0,0.8333 -0.666667,1.5 -1.5,1.5 -0.833333,0 -1.5,-0.6667 -1.5,-1.5 0,-0.8333 0.666667,-1.5 1.5,-1.5 z"
       style="fill:#ffffff;fill-opacity:1;stroke:none" />
    <path
       sodipodi:nodetypes="ccsscscscccccccccscsccccccsscscssssssssssssssssssss"
       inkscape:connector-curvature="0"
       id="path3914"
       d="m 5.4947968,1070.4227 0,1 c 0.375,0 0.476562,0.01 0.5,0.2188 0.0078,0.07 0,0.1562 0,0.2812 l 0,2.5 c 0,0 -5.50000002,7 -5.00000002,7.5 0.50000002,0.5 7.00000002,0.5 7.00000002,0.5 0,0 6.5000002,0 7.0000002,-0.5 0.5,-0.5 -5.0000002,-7.5 -5.0000002,-7.5 l 0,-2.5 0,-0.2812 c 0.02344,-0.211 0.1250002,-0.2188 0.5000002,-0.2188 l 0,-1 c -1.2855102,0 -1.4424652,0.056 -1.4687502,1 l -0.03125,0 0,0.5 0,3 c 0,0 4.4365082,5.58 4.0000002,6 -0.436508,0.42 -5.0000002,0.5 -5.0000002,0.5 0,0 -4.563492,-0.08 -5,-0.5 -0.436508,-0.42 4,-6 4,-6 l 0,-3 0,-0.5 -0.03125,0 c -0.02629,-0.9441 -0.18324,-1 -1.46875,-1 z m 1,6.5 c 0,0 -3,3 -2.5,3.5 0.5,0.5 7.5000002,0.5 8.0000002,0 0.5,-0.5 -2.5000002,-3.5 -2.5000002,-3.5 0,0 -0.5,0.5 -1.5,0.5 -1,0 -1.5,-0.5 -1.5,-0.5 z m 0.5,1 c 0.276142,0 0.5,0.2239 0.5,0.5 0,0.2762 -0.223858,0.5 -0.5,0.5 -0.276142,0 -0.5,-0.2238 -0.5,-0.5 0,-0.2761 0.223858,-0.5 0.5,-0.5 z m 2,0 c 0.276142,0 0.5,0.2239 0.5,0.5 0,0.2762 -0.223858,0.5 -0.5,0.5 -0.276142,0 -0.5,-0.2238 -0.5,-0.5 0,-0.2761 0.223858,-0.5 0.5,-0.5 z m -1,1 c 0.276142,0 0.5,0.2239 0.5,0.5 0,0.2762 -0.223858,0.5 -0.5,0.5 -0.276142,0 -0.5,-0.2238 -0.5,-0.5 0,-0.2761 0.223858,-0.5 0.5,-0.5 z m -1.5,0.5 c 0.276142,0 0.5,0.2239 0.5,0.5 0,0.2762 -0.223858,0.5 -0.5,0.5 -0.276142,0 -0.5,-0.2238 -0.5,-0.5 0,-0.2761 0.223858,-0.5 0.5,-0.5 z"
       style="fill:#ffffff;fill-opacity:1;stroke:none" />
    <path
       style="fill:#ffffff;fill-opacity:1;stroke:none"
       d="m 8,1118.4245 c -0.5,0 -6.5,10.5455 -6,11 0.5,0.4546 11.5,0.4546 12,0 0.5,-0.4545 -5.5,-11 -6,-11 z m -1,3 2,0 c 0,2 0.03125,-0.7333 0,4 l -2,0 c 0.03125,-3.7333 0,-2 0,-4 z m 1,5.125 c 0.552285,0 1,0.422 1,0.9375 0,0.5155 -0.447715,0.9375 -1,0.9375 -0.552285,0 -1,-0.422 -1,-0.9375 0,-0.5155 0.447715,-0.9375 1,-0.9375 z"
       id="path3918"
       inkscape:connector-curvature="0" />
    <path
       inkscape:connector-curvature="0"
       id="path3924"
       d="m 6.9947968,1086.4227 c -0.5,0 -1,0.5 -1,1 l 0,3 -3,0 c -0.5,0 -1,0.5 -1,1 l 0,6 c 0,0.5 0.5,1 1,1 l 6,0 c 0.5,0 1,-0.5 1,-1 l 0,-3 3.0000002,0 c 0.5,0 1,-0.5 1,-1 l 0,-6 c 0,-0.5 -0.5,-1 -1,-1 l -6.0000002,0 z m 0.5,1 5.0000002,0 c 0.335756,0 0.5,0.173 0.5,0.5 l 0,5 c 0,0.327 -0.164243,0.5 -0.5,0.5 l -2.5000002,0 0,-2 c 0,-0.5 -0.5,-1 -1,-1 l -2.0625,0 0.0625,-2.5 c 0.0076,-0.3269 0.164243,-0.5 0.5,-0.5 z m 1,0.5 c -0.552285,0 -1,0.4477 -1,1 0,0.5523 0.447715,1 1,1 0.552285,0 1,-0.4477 1,-1 0,-0.5523 -0.447715,-1 -1,-1 z m 3.0000002,0 c -0.552285,0 -1,0.4477 -1,1 0,0.5523 0.447715,1 1,1 0.552285,0 1,-0.4477 1,-1 0,-0.5523 -0.447715,-1 -1,-1 z m 0,3 c -0.552285,0 -1,0.4477 -1,1 0,0.5523 0.447715,1 1,1 0.552285,0 1,-0.4477 1,-1 0,-0.5523 -0.447715,-1 -1,-1 z m -8.0000002,0.5 5,0 c 0.335756,0 0.5,0.173 0.5,0.5 l 0,5 c 0,0.327 -0.164243,0.5 -0.5,0.5 l -5,0 c -0.335778,0 -0.632578,-0.2668 -0.625,-0.5937 l 0.125,-4.9063 c 0.0076,-0.3269 0.164243,-0.5 0.5,-0.5 z m 1,0.5 c -0.552285,0 -1,0.4477 -1,1 0,0.5523 0.447715,1 1,1 0.552285,0 1,-0.4477 1,-1 0,-0.5523 -0.447715,-1 -1,-1 z m 1.5,1.5 c -0.552285,0 -1,0.4477 -1,1 0,0.5523 0.447715,1 1,1 0.552285,0 1,-0.4477 1,-1 0,-0.5523 -0.447715,-1 -1,-1 z m 1.5,1.5 c -0.552285,0 -1,0.4477 -1,1 0,0.5523 0.447715,1 1,1 0.552285,0 1,-0.4477 1,-1 0,-0.5523 -0.447715,-1 -1,-1 z"
       style="fill:#ffffff;fill-opacity:1;stroke:none" />
    <g
       style="fill:#ffffff;fill-opacity:1"
       id="g3926"
       transform="translate(-16.005203,-79.939492)">
      <path
         style="fill:#ffffff;fill-opacity:1;stroke:none"
         d="m 18,97.999982 0,3.999998 0,8 12,0 0,-8 0,-3.999998 z m 1,3.999998 10,0 0,7 -10,0 z"
         transform="translate(0,1036.3622)"
         id="path3928"
         inkscape:connector-curvature="0"
         sodipodi:nodetypes="cccccccccccc" />
      <path
         style="fill:#ffffff;fill-opacity:1;stroke:none"
         d="m 21,1139.3622 0,1 3,0 0,1 -2,0 0,1 2,0 0,1 -3,0 0,1 4,0 0,-5 z"
         id="path3930"
         inkscape:connector-curvature="0"
         sodipodi:nodetypes="ccccccccccccc" />
      <rect
         style="fill:#ffffff;fill-opacity:1;stroke:none"
         id="rect3932"
         width="1"
         height="5.0000005"
         x="26"
         y="1139.3622" />
    </g>
    <path
       inkscape:connector-curvature="0"
       style="fill:#ffffff;fill-opacity:1;stroke:none"
       d="m 12.182297,1134.0474 c -0.984375,0.1406 -2.09375,1.2813 -2.09375,1.2813 -0.1012162,0.063 -0.2012212,0.1562 -0.2812502,0.25 -0.02492,0.029 -0.0408,0.063 -0.0625,0.094 l -2.875,2.875 -1.15625,-0.5312 1.78125,-1.5938 -2,-1 -4.50000002,4 2.00000002,1 2.15625,-1.9375 1.21875,0.5625 -0.875,0.875 -1,0 -2.5,2.5 0,2 1.5,1.5 2,0 0.5,-0.5 2,-2 0,-1 1.78125,-1.7812 1.0312502,0.4687 -2.3125002,2.3125 2.5000002,1.5 4.5,-5 -2.5,-1 -1.6875,1.6875 -1.03125,-0.4687 1.90625,-1.9063 c 0.133358,-0.07 0.274123,-0.1319 0.375,-0.25 0.489252,-0.5729 0.326132,-1.5261 -0.3125,-2.1875 0.716003,-0.3842 1.401232,-0.9113 0.84375,-1.4687 -0.25,-0.25 -0.578125,-0.3282 -0.90625,-0.2813 z"
       id="path3934" />
    <path
       d="m 35.545454,1157.113 0,2.5455 4.454545,2.4309 4.454546,-2.4309 0,-2.5455 -4.454546,2.431 -4.454545,-2.431 z m 4.454545,-6.4781 -6.999999,3.8182 6.999999,3.8181 5.727274,-3.1245 0,4.3973 1.272727,0 0,-5.0909 -7.000001,-3.8182 z"
       id="path6"
       inkscape:connector-curvature="0"
       style="fill:#f6f6f6;fill-opacity:1" />
    <path
       style="fill:#202020;fill-opacity:1"
       inkscape:connector-curvature="0"
       id="path4312"
       d="m 51.545454,1157.113 0,2.5455 4.454545,2.4309 4.454546,-2.4309 0,-2.5455 -4.454546,2.431 -4.454545,-2.431 z m 4.454545,-6.4781 -6.999999,3.8182 6.999999,3.8181 5.727274,-3.1245 0,4.3973 1.272727,0 0,-5.0909 -7.000001,-3.8182 z" />
  </g>
</svg>
