<?xml version="1.0" encoding="UTF-8" standalone="no"?>
<!-- Created with Inkscape (http://www.inkscape.org/) -->

<svg xmlns:dc="http://purl.org/dc/elements/1.1/" xmlns:cc="http://creativecommons.org/ns#" xmlns:rdf="http://www.w3.org/1999/02/22-rdf-syntax-ns#" xmlns:svg="http://www.w3.org/2000/svg" xmlns="http://www.w3.org/2000/svg" xmlns:sodipodi="http://sodipodi.sourceforge.net/DTD/sodipodi-0.dtd" xmlns:inkscape="http://www.inkscape.org/namespaces/inkscape" width="500" height="150" viewBox="0 0 500 150" id="svg2" version="1.1" inkscape:version="0.91 r13725" sodipodi:docname="icon-eo.svg" inkscape:export-filename="/Users/stuartlowe/Projects/classroom-rocket-scientist/classroom-rocket-scientist/images/icon-weather.png" inkscape:export-xdpi="90" inkscape:export-ydpi="90">
  <defs id="defs4">
    <clipPath clipPathUnits="userSpaceOnUse" id="clipPath4175">
      <rect ry="0" y="883.15" x="-124.36" height="218.82" width="729.42" id="rect4177" style="opacity:1;fill:#1c661d;fill-opacity:1;stroke:none;stroke-width:5;stroke-linecap:round;stroke-linejoin:round;stroke-miterlimit:4;stroke-dasharray:none;stroke-dashoffset:0;stroke-opacity:1" />
    </clipPath>
  </defs>
  <sodipodi:namedview id="base" pagecolor="#ffffff" bordercolor="#666666" borderopacity="1.0" inkscape:pageopacity="0.0" inkscape:pageshadow="2" inkscape:zoom="1.4" inkscape:cx="236.45" inkscape:cy="146.36" inkscape:document-units="px" inkscape:current-layer="layer1" showgrid="false" units="px" fit-margin-top="0" fit-margin-left="0" fit-margin-right="0" fit-margin-bottom="0" inkscape:window-width="1280" inkscape:window-height="752" inkscape:window-x="1" inkscape:window-y="0" inkscape:window-maximized="0" />
  <metadata id="metadata7">
    <rdf:RDF>
      <cc:Work rdf:about="">
        <dc:format>image/svg+xml</dc:format>
        <dc:type rdf:resource="http://purl.org/dc/dcmitype/StillImage" />
        <dc:title></dc:title>
      </cc:Work>
    </rdf:RDF>
  </metadata>
  <g inkscape:label="Layer 1" inkscape:groupmode="layer" id="layer1" transform="translate(0,-902.4)">
    <path style="opacity:1;fill:#02a24b;fill-opacity:1;stroke:none;stroke-width:5;stroke-linecap:round;stroke-linejoin:round;stroke-miterlimit:4;stroke-dasharray:none;stroke-dashoffset:0;stroke-opacity:1" d="M 0 0 L 0 150 L 500 150 L 500 0 L 0 0 z M 222.82 24.811 L 227 37.359 L 235.36 33.18 L 231.18 41.539 L 243.73 45.721 L 231.18 49.91 L 235.36 58.27 L 227 54.09 L 222.82 66.631 L 218.64 54.09 L 210.27 58.27 L 214.45 49.91 L 201.91 45.721 L 214.45 41.539 L 210.27 33.18 L 218.64 37.359 L 222.82 24.811 z M 268.82 24.814 L 281.36 24.814 L 268.82 37.359 L 281.36 37.359 L 252.09 58.27 L 261.71 45.723 L 247.91 45.723 L 268.82 24.814 z M 287.64 28.998 A 2.091 2.091 0 0 1 289.73 31.09 A 2.091 2.091 0 0 1 287.64 33.182 A 2.091 2.091 0 0 1 285.55 31.09 A 2.091 2.091 0 0 1 287.64 28.998 z M 296 28.998 A 2.091 2.091 0 0 1 298.09 31.09 A 2.091 2.091 0 0 1 296 33.182 A 2.091 2.091 0 0 1 293.91 31.09 A 2.091 2.091 0 0 1 296 28.998 z M 291.82 37.359 A 2.091 2.091 0 0 1 293.91 39.449 A 2.091 2.091 0 0 1 291.82 41.541 A 2.091 2.091 0 0 1 289.73 39.449 A 2.091 2.091 0 0 1 291.82 37.359 z M 222.82 38.609 C 219.05 38.609 215.71 41.541 215.71 45.721 C 215.71 49.491 218.64 52.83 222.82 52.83 C 227 52.83 229.93 49.911 229.93 45.721 C 229.93 41.961 226.58 38.609 222.82 38.609 z M 285.55 41.539 C 287.64 48.229 293.91 51.58 293.91 58.27 C 293.91 62.87 290.15 66.631 285.55 66.631 C 280.95 66.631 277.18 62.87 277.18 58.27 C 277.18 51.58 283.46 48.229 285.55 41.539 z M 296 45.719 A 2.091 2.091 0 0 1 298.09 47.811 A 2.091 2.091 0 0 1 296 49.9 A 2.091 2.091 0 0 1 293.91 47.811 A 2.091 2.091 0 0 1 296 45.719 z M 283.46 58.27 C 282.2 58.27 281.36 59.109 281.36 60.359 C 281.36 61.609 282.2 62.449 283.46 62.449 C 284.71 62.449 285.55 61.609 285.55 60.359 C 285.55 59.109 284.71 58.27 283.46 58.27 z M 241.64 62.449 L 258.36 62.449 C 275.09 62.449 288.47 75.411 289.73 91.721 L 289.73 95.91 C 288.47 112.2 275.09 125.2 258.36 125.2 L 241.64 125.2 C 224.91 125.2 211.53 112.2 210.27 95.91 L 210.27 93.82 L 210.27 91.721 C 211.53 75.411 224.91 62.449 241.64 62.449 z M 243.31 66.631 C 239.55 69.981 236.2 74.16 234.11 79.18 L 247.91 79.18 L 247.91 66.631 L 243.31 66.631 z M 252.09 66.631 L 252.09 79.18 L 265.47 79.18 C 263.38 74.16 260.45 69.981 256.27 66.631 L 252.09 66.631 z M 237.04 67.051 C 229.51 68.311 222.82 72.91 218.64 79.18 L 229.51 79.18 C 231.6 74.58 234.11 70.401 237.04 67.051 z M 262.96 67.051 C 266.31 70.401 268.82 74.58 270.49 79.18 L 281.36 79.18 C 277.18 72.91 270.49 68.311 262.96 67.051 z M 216.54 83.359 C 215.29 85.869 214.87 88.801 214.45 91.721 L 227 91.721 C 227 88.801 227.42 85.869 228.25 83.359 L 216.54 83.359 z M 232.44 83.359 C 231.6 85.869 231.18 88.801 231.18 91.721 L 247.49 91.721 L 247.49 83.359 L 232.44 83.359 z M 251.67 83.359 L 251.67 91.721 L 268.4 91.721 C 268.4 88.801 267.98 85.869 267.15 83.359 L 252.09 83.359 L 251.67 83.359 z M 271.75 83.359 C 272.58 85.869 273 88.801 273 91.721 L 285.55 91.721 C 285.13 88.801 284.71 85.869 283.46 83.359 L 271.75 83.359 z M 214.45 95.91 C 214.87 98.8 215.29 101.8 216.54 104.3 L 228.25 104.3 C 227.42 101.8 227 98.8 227 95.91 L 214.45 95.91 z M 231.6 95.91 C 231.6 98.8 232.02 101.8 232.85 104.3 L 247.91 104.3 L 248.33 104.3 L 248.33 95.91 L 231.6 95.91 z M 252.09 95.91 L 252.09 104.3 L 267.56 104.3 C 268.4 101.8 268.82 98.8 268.82 95.91 L 252.09 95.91 z M 273 95.91 C 273 98.8 272.58 101.8 271.75 104.3 L 283.46 104.3 C 284.71 101.8 285.13 98.8 285.55 95.91 L 273 95.91 z M 218.64 108.5 C 222.82 114.7 229.51 119.3 237.04 120.6 C 233.69 117.2 231.18 113.1 229.51 108.5 L 218.64 108.5 z M 234.53 108.5 C 236.62 113.5 239.55 117.7 243.73 121 L 247.91 121 L 248.33 121 L 248.33 108.5 L 234.53 108.5 z M 252.09 108.5 L 252.09 121 L 256.27 121 C 260.45 117.7 263.8 113.5 265.89 108.5 L 252.09 108.5 z M 270.49 108.5 C 268.4 113.1 265.89 117.2 262.96 120.6 C 270.49 119.3 277.18 114.7 281.36 108.5 L 270.49 108.5 z " transform="translate(0,902.4)" id="rect4136" />
    <g style="display:none" display="none" id="g4403" transform="matrix(1.1667,0,0,1.1667,191.66,920.06)">
      <rect style="display:inline;fill:#000000" x="5" y="5" display="inline" width="90" height="90" id="rect4405" />
    </g>
  </g>
</svg>
