<?xml version="1.0" encoding="UTF-8" standalone="no"?>
<!-- Created with Inkscape (http://www.inkscape.org/) -->

<svg xmlns:dc="http://purl.org/dc/elements/1.1/" xmlns:cc="http://creativecommons.org/ns#" xmlns:rdf="http://www.w3.org/1999/02/22-rdf-syntax-ns#" xmlns:svg="http://www.w3.org/2000/svg" xmlns="http://www.w3.org/2000/svg" xmlns:sodipodi="http://sodipodi.sourceforge.net/DTD/sodipodi-0.dtd" xmlns:inkscape="http://www.inkscape.org/namespaces/inkscape" width="500" height="150" viewBox="0 0 500 150" id="svg2" version="1.1" inkscape:version="0.91 r13725" sodipodi:docname="icon-nav.svg" inkscape:export-filename="/Users/stuartlowe/Projects/classroom-rocket-scientist/classroom-rocket-scientist/images/icon-weather.png" inkscape:export-xdpi="90" inkscape:export-ydpi="90">
  <defs id="defs4">
    <clipPath clipPathUnits="userSpaceOnUse" id="clipPath4175">
      <rect ry="0" y="883.15" x="-124.36" height="218.82" width="729.42" id="rect4177" style="opacity:1;fill:#1c661d;fill-opacity:1;stroke:none;stroke-width:5;stroke-linecap:round;stroke-linejoin:round;stroke-miterlimit:4;stroke-dasharray:none;stroke-dashoffset:0;stroke-opacity:1" />
    </clipPath>
  </defs>
  <sodipodi:namedview id="base" pagecolor="#ffffff" bordercolor="#666666" borderopacity="1.0" inkscape:pageopacity="0.0" inkscape:pageshadow="2" inkscape:zoom="1.4" inkscape:cx="236.45" inkscape:cy="146.36" inkscape:document-units="px" inkscape:current-layer="layer1" showgrid="false" units="px" fit-margin-top="0" fit-margin-left="0" fit-margin-right="0" fit-margin-bottom="0" inkscape:window-width="1280" inkscape:window-height="752" inkscape:window-x="1" inkscape:window-y="0" inkscape:window-maximized="0" />
  <metadata id="metadata7">
    <rdf:RDF>
      <cc:Work rdf:about="">
        <dc:format>image/svg+xml</dc:format>
        <dc:type rdf:resource="http://purl.org/dc/dcmitype/StillImage" />
        <dc:title></dc:title>
      </cc:Work>
    </rdf:RDF>
  </metadata>
  <g inkscape:label="Layer 1" inkscape:groupmode="layer" id="layer1" transform="translate(0,-902.4)">
    <path style="opacity:1;fill:#00a2d3;fill-opacity:1;stroke:none;stroke-width:5;stroke-linecap:round;stroke-linejoin:round;stroke-miterlimit:4;stroke-dasharray:none;stroke-dashoffset:0;stroke-opacity:1" d="M 0 0 L 0 150 L 500 150 L 500 0 L 0 0 z M 267.5 28.859 C 278.35 29.439 283.13 37.49 283.13 46.83 C 283.13 59.54 267.5 71.33 267.5 71.33 C 267.5 71.33 251.86 58.61 251.86 46.83 C 251.86 37.49 256.76 29.439 267.5 28.859 z M 267.5 37.381 C 263.76 37.381 260.73 40.411 260.73 44.141 C 260.73 47.881 263.76 50.91 267.5 50.91 C 271.23 50.91 274.26 47.881 274.26 44.141 C 274.26 40.411 271.23 37.381 267.5 37.381 z M 228.88 52.539 L 250 61.529 L 252.21 60.59 C 253.15 62.23 254.2 63.861 255.36 65.381 L 250 67.711 L 229.11 58.84 L 211.61 66.66 L 204.61 112.6 L 225.61 104.9 L 250.11 113.9 L 274.61 104.9 L 295.61 112.6 L 288.61 66.66 L 280.91 63.16 C 281.96 61.53 282.9 59.891 283.6 58.141 L 293.63 62.689 L 302.5 121.1 L 274.5 110.9 L 250 119.9 L 225.49 110.9 L 197.49 121.1 L 206.36 62.689 L 228.88 52.539 z M 228.99 64.445 L 247.78 71.795 L 247.78 93.846 L 227.71 86.145 L 228.99 64.445 z M 224.68 65.729 L 222.93 86.262 L 212.66 88.596 L 215.23 69.461 L 224.68 65.729 z M 278.23 66.891 L 285 69.58 L 286.75 83.93 L 276.25 77.859 L 275.66 69.93 C 276.48 68.99 277.41 67.941 278.23 66.891 z M 258.63 69.34 C 260.85 71.91 265.28 75.641 267.61 77.631 L 271.58 74.24 L 271.58 78.91 L 267.5 80.311 L 251.86 86.15 L 251.86 72.029 L 258.63 69.34 z M 272.04 82.529 L 273.21 99.912 L 251.98 108.55 L 251.86 90.695 L 272.04 82.529 z M 276.6 82.996 L 286.86 88.361 L 289.55 105.28 L 277.88 101.54 L 276.6 82.996 z M 222.93 90.695 L 222.11 101.54 L 210.44 105.28 L 212.08 93.262 L 222.93 90.695 z M 227.01 90.695 L 247.78 98.629 L 247.78 107.73 L 226.43 100.26 L 227.01 90.695 z " transform="translate(0,902.4)" id="rect4136" />
    <g style="display:none" display="none" id="g4403" transform="matrix(1.1667,0,0,1.1667,191.66,920.06)">
      <rect style="display:inline;fill:#000000" x="5" y="5" display="inline" width="90" height="90" id="rect4405" />
    </g>
  </g>
</svg>
