<?xml version="1.0" encoding="UTF-8" standalone="no"?>
<!-- Created with Inkscape (http://www.inkscape.org/) -->

<svg xmlns:dc="http://purl.org/dc/elements/1.1/" xmlns:cc="http://creativecommons.org/ns#" xmlns:rdf="http://www.w3.org/1999/02/22-rdf-syntax-ns#" xmlns:svg="http://www.w3.org/2000/svg" xmlns="http://www.w3.org/2000/svg" xmlns:sodipodi="http://sodipodi.sourceforge.net/DTD/sodipodi-0.dtd" xmlns:inkscape="http://www.inkscape.org/namespaces/inkscape" width="500" height="150" viewBox="0 0 500 150" id="svg2" version="1.1" inkscape:version="0.91 r13725" sodipodi:docname="icon-topography.svg" inkscape:export-filename="/Users/stuartlowe/Projects/classroom-rocket-scientist/classroom-rocket-scientist/images/icon-topography.png" inkscape:export-xdpi="90" inkscape:export-ydpi="90">
  <defs id="defs4">
    <clipPath clipPathUnits="userSpaceOnUse" id="clipPath4175">
      <rect ry="0" y="883.15" x="-124.36" height="218.82" width="729.42" id="rect4177" style="opacity:1;fill:#1c661d;fill-opacity:1;stroke:none;stroke-width:5;stroke-linecap:round;stroke-linejoin:round;stroke-miterlimit:4;stroke-dasharray:none;stroke-dashoffset:0;stroke-opacity:1" />
    </clipPath>
  </defs>
  <sodipodi:namedview id="base" pagecolor="#ffffff" bordercolor="#666666" borderopacity="1.0" inkscape:pageopacity="0.0" inkscape:pageshadow="2" inkscape:zoom="1.4" inkscape:cx="236.45" inkscape:cy="146.36" inkscape:document-units="px" inkscape:current-layer="layer1" showgrid="false" units="px" fit-margin-top="0" fit-margin-left="0" fit-margin-right="0" fit-margin-bottom="0" inkscape:window-width="1280" inkscape:window-height="752" inkscape:window-x="1" inkscape:window-y="0" inkscape:window-maximized="0" />
  <metadata id="metadata7">
    <rdf:RDF>
      <cc:Work rdf:about="">
        <dc:format>image/svg+xml</dc:format>
        <dc:type rdf:resource="http://purl.org/dc/dcmitype/StillImage" />
        <dc:title></dc:title>
      </cc:Work>
    </rdf:RDF>
  </metadata>
  <g inkscape:label="Layer 1" inkscape:groupmode="layer" id="layer1" transform="translate(0,-902.4)">
    <path style="opacity:1;fill:#00a2d3;fill-opacity:1;stroke:none;stroke-width:5;stroke-linecap:round;stroke-linejoin:round;stroke-miterlimit:4;stroke-dasharray:none;stroke-dashoffset:0;stroke-opacity:1" d="M 0 0 L 0 150 L 500 150 L 500 0 L 0 0 z M 250 33.25 L 322.3 74.99 L 250 116.8 L 177.71 74.99 L 177.7 74.99 L 250 33.25 z M 250 38.4 L 239.22 44.631 C 242.75 46.661 246.34 48.711 250 50.641 C 253.65 48.711 257.25 46.661 260.79 44.631 L 250 38.4 z M 238.1 45.25 L 225.64 52.439 C 228.88 54.289 232.02 55.981 235.61 57.051 C 235.89 57.111 236.15 57.11 236.41 57.26 C 237.84 56.56 239.28 55.881 240.69 55.211 C 242.51 54.351 244.34 53.49 246.13 52.6 C 247.02 52.15 247.91 51.69 248.79 51.23 C 245.17 49.3 241.59 47.27 238.1 45.25 z M 261.9 45.25 C 258.41 47.27 254.84 49.3 251.22 51.23 C 252.11 51.69 252.98 52.15 253.86 52.6 C 255.67 53.49 257.49 54.351 259.32 55.211 C 260.73 55.881 262.17 56.56 263.61 57.26 C 263.86 57.2 264.11 57.201 264.38 57.051 C 267.98 55.981 271.13 54.289 274.36 52.449 L 261.9 45.25 z M 250 51.891 C 248.88 52.461 247.76 53.059 246.64 53.609 C 244.81 54.509 242.99 55.37 241.16 56.23 C 240.17 56.71 239.16 57.18 238.15 57.66 C 240.63 58.09 242.51 57.9 244.77 57.66 C 246.09 57.52 247.59 57.33 249.35 57.33 L 249.56 57.33 L 250.03 57.33 L 250.49 57.33 L 250.64 57.33 C 252.41 57.36 253.91 57.51 255.23 57.66 C 257.48 57.9 259.37 58.09 261.84 57.66 C 260.84 57.17 259.83 56.69 258.83 56.23 C 257.01 55.37 255.18 54.499 253.36 53.609 C 252.23 53.039 251.12 52.461 250 51.891 z M 275.48 53.09 C 272.23 54.97 268.84 56.81 265.09 57.98 C 267.24 59.05 269.36 60.18 271.42 61.4 C 273.39 62.55 275.33 63.801 277.23 65.061 C 281 64.101 284.6 62.199 287.93 60.279 L 275.48 53.09 z M 224.53 53.1 L 212.06 60.301 C 215.4 62.211 218.99 64.11 222.78 65.08 C 224.68 63.82 226.6 62.57 228.58 61.41 C 230.64 60.2 232.78 59.07 234.91 58 C 231.16 56.83 227.78 54.99 224.53 53.1 z M 236.53 58.4 C 234.05 59.63 231.56 60.91 229.15 62.33 C 227.52 63.3 225.9 64.319 224.3 65.369 C 225.62 65.689 226.96 65.689 228.31 65.689 C 229.9 65.629 231.31 65.541 232.68 65.391 C 233.9 65.311 235.03 65.17 236.12 65.17 C 236.75 64.47 237.37 63.791 238 63.131 C 239.72 61.351 241.43 59.879 243.4 58.859 C 242.63 59.009 241.87 59.01 241.09 59.01 C 239.72 59.01 238.25 58.86 236.53 58.43 L 236.53 58.4 z M 250.03 58.43 C 245.09 58.47 242.08 60.569 238.8 63.949 C 238.4 64.359 238 64.79 237.61 65.23 C 240.82 65.4 243.86 66.5 247.76 70.33 C 248.53 71.1 249.28 71.889 250 72.699 C 250.74 71.889 251.46 71.1 252.25 70.33 C 256.13 66.5 259.17 65.4 262.38 65.23 C 262.01 64.81 261.64 64.39 261.25 63.99 C 257.97 60.6 254.94 58.43 250.03 58.43 z M 263.49 58.471 C 261.75 58.891 260.27 59.039 258.91 59.039 C 258.15 59.039 257.41 59.041 256.67 58.891 C 258.59 59.911 260.29 61.381 262.05 63.211 C 262.68 63.861 263.28 64.509 263.88 65.199 C 264.99 65.229 266.12 65.27 267.33 65.42 C 268.7 65.54 270.09 65.711 271.71 65.711 C 273.06 65.761 274.4 65.64 275.7 65.4 C 274.11 64.35 272.5 63.33 270.86 62.35 L 270.86 62.381 C 268.46 60.971 265.98 59.691 263.49 58.471 z M 210.95 60.92 L 198.5 68.119 C 202.02 70.139 205.61 72.18 209.26 74.1 C 210.24 73.47 211.23 72.87 212.2 72.23 C 214.14 70.95 216.04 69.65 217.95 68.33 C 219.16 67.51 220.36 66.679 221.59 65.859 C 217.75 64.719 214.14 62.76 210.95 60.92 z M 289.05 60.92 C 285.86 62.76 282.24 64.719 278.41 65.859 C 279.62 66.679 280.85 67.51 282.05 68.34 C 283.95 69.65 285.87 70.95 287.81 72.23 C 288.76 72.87 289.75 73.47 290.75 74.1 C 294.38 72.18 297.98 70.149 301.5 68.119 L 289.05 60.92 z M 276.99 66.25 C 275.25 66.66 273.47 66.84 271.68 66.84 C 270.04 66.78 268.56 66.691 267.24 66.551 C 266.4 66.521 265.62 66.369 264.87 66.369 C 266.12 67.839 267.33 69.35 268.5 70.83 C 269.2 71.72 269.92 72.61 270.63 73.5 C 273.03 76.46 275.14 78.739 277.28 80.699 C 278.64 80.029 280.02 79.38 281.39 78.74 C 283.21 77.88 285.04 77.019 286.85 76.119 C 287.77 75.659 288.69 75.181 289.59 74.711 C 288.8 74.201 288 73.7 287.19 73.18 C 285.25 71.9 283.34 70.58 281.43 69.26 C 279.97 68.27 278.49 67.26 276.99 66.25 z M 223.02 66.26 C 221.53 67.26 220.06 68.27 218.6 69.26 C 216.67 70.58 214.76 71.9 212.82 73.18 C 212.03 73.7 211.21 74.201 210.41 74.711 C 211.32 75.181 212.24 75.659 213.16 76.119 C 214.97 77.009 216.79 77.87 218.6 78.73 C 219.98 79.38 221.36 80.031 222.76 80.721 C 224.86 78.761 226.99 76.461 229.4 73.471 C 230.1 72.601 230.8 71.72 231.51 70.83 C 232.68 69.35 233.89 67.849 235.15 66.369 C 234.39 66.399 233.62 66.401 232.77 66.551 C 231.46 66.661 229.96 66.84 228.34 66.84 C 226.54 66.9 224.76 66.66 223.02 66.26 z M 236.65 66.311 C 235.18 68.011 233.75 69.799 232.37 71.529 C 231.66 72.419 230.97 73.3 230.25 74.17 L 230.26 74.17 C 227.94 77.04 225.87 79.29 223.81 81.23 C 226.14 82.38 228.47 83.58 230.72 84.91 C 232.62 86.04 234.51 87.24 236.36 88.48 C 237.24 87.69 238.09 86.87 238.93 86 C 241.06 83.73 243.03 81.23 244.93 78.83 C 246.33 77.07 247.76 75.291 249.27 73.551 C 248.53 72.721 247.77 71.901 246.99 71.131 C 242.96 67.171 240.09 66.311 236.65 66.311 z M 263.34 66.311 C 259.92 66.291 257.05 67.171 253.02 71.131 C 252.23 71.901 251.47 72.719 250.73 73.529 C 252.25 75.269 253.68 77.07 255.06 78.83 C 256.96 81.23 258.94 83.73 261.07 86 C 261.9 86.87 262.76 87.69 263.65 88.48 C 265.5 87.24 267.38 86.04 269.29 84.91 C 271.53 83.58 273.87 82.381 276.19 81.221 C 274.14 79.311 272.08 77.049 269.77 74.199 C 269.04 73.309 268.33 72.42 267.62 71.52 C 266.25 69.78 264.83 68.011 263.34 66.311 z M 197.39 68.76 L 186.6 74.99 L 197.37 81.221 C 200.85 79.221 204.51 77.071 208.18 74.801 C 204.51 72.851 200.92 70.79 197.39 68.76 z M 302.6 68.76 C 299.07 70.79 295.49 72.851 291.82 74.801 C 295.49 77.071 299.15 79.201 302.62 81.221 L 313.39 74.99 L 302.6 68.76 z M 250 74.391 C 248.53 76.071 247.17 77.81 245.81 79.51 C 243.89 81.95 241.9 84.45 239.72 86.75 C 238.93 87.59 238.14 88.359 237.31 89.109 C 238.65 90.019 240 90.94 241.31 91.83 C 243.22 93.15 245.14 94.47 247.1 95.75 C 248.06 96.37 249.03 96.99 250 97.6 C 250.97 96.99 251.95 96.37 252.91 95.75 C 254.86 94.47 256.77 93.15 258.7 91.83 C 260 90.94 261.35 90.019 262.69 89.109 C 261.87 88.359 261.06 87.59 260.27 86.75 C 258.1 84.45 256.12 81.95 254.19 79.51 C 252.84 77.81 251.46 76.071 250 74.391 z M 209.32 75.4 C 205.65 77.69 201.99 79.859 198.49 81.869 L 210.95 89.07 C 215.39 86.46 218.68 84.31 221.86 81.52 C 220.61 80.91 219.36 80.33 218.13 79.74 C 216.29 78.88 214.47 78.019 212.66 77.109 C 211.53 76.559 210.42 75.98 209.32 75.4 z M 290.68 75.4 C 289.59 75.98 288.47 76.559 287.35 77.109 C 285.54 78.019 283.69 78.88 281.87 79.74 C 280.63 80.32 279.41 80.91 278.18 81.5 L 278.17 81.5 C 281.37 84.32 284.68 86.49 289.04 89.07 L 301.51 81.869 C 298 79.859 294.35 77.69 290.68 75.4 z M 222.93 82.039 C 219.69 84.929 216.37 87.141 212.06 89.711 L 224.52 96.9 C 228.11 94.77 231.93 92.3 235.49 89.23 C 233.74 88.08 231.96 86.929 230.15 85.859 C 227.81 84.479 225.37 83.239 222.93 82.039 z M 277.07 82.039 C 274.63 83.239 272.21 84.479 269.87 85.859 C 268.06 86.949 266.27 88.08 264.5 89.23 C 268.07 92.3 271.89 94.771 275.49 96.891 L 287.94 89.711 C 283.63 87.141 280.31 84.929 277.07 82.039 z M 263.56 89.891 C 262.13 90.831 260.73 91.8 259.33 92.75 C 257.39 94.07 255.46 95.4 253.53 96.68 C 252.7 97.22 251.87 97.701 251.03 98.301 L 251.04 98.301 C 254.73 100.6 258.43 102.8 261.91 104.8 L 274.38 97.529 C 270.83 95.399 267.06 92.941 263.56 89.891 z M 236.45 89.895 C 232.95 92.943 229.18 95.4 225.62 97.529 L 238.09 104.8 C 241.59 102.8 245.28 100.6 248.97 98.301 C 248.13 97.701 247.29 97.22 246.47 96.68 C 244.53 95.39 242.6 94.07 240.67 92.75 C 239.28 91.801 237.87 90.833 236.45 89.895 z M 250 98.9 C 246.35 101.3 242.67 103.4 239.2 105.4 L 250 111.7 L 260.79 105.4 C 257.32 103.4 253.65 101.3 250 98.9 z " transform="translate(0,902.4)" id="rect4136" />
    <g style="display:none" display="none" id="g4403" transform="matrix(1.1667,0,0,1.1667,191.66,920.06)">
      <rect style="display:inline;fill:#000000" x="5" y="5" display="inline" width="90" height="90" id="rect4405" />
    </g>
  </g>
</svg>
