<?xml version="1.0" encoding="UTF-8" standalone="no"?>
<!-- Created with Inkscape (http://www.inkscape.org/) -->

<svg xmlns:dc="http://purl.org/dc/elements/1.1/" xmlns:cc="http://creativecommons.org/ns#" xmlns:rdf="http://www.w3.org/1999/02/22-rdf-syntax-ns#" xmlns:svg="http://www.w3.org/2000/svg" xmlns="http://www.w3.org/2000/svg" xmlns:sodipodi="http://sodipodi.sourceforge.net/DTD/sodipodi-0.dtd" xmlns:inkscape="http://www.inkscape.org/namespaces/inkscape" width="500" height="150" viewBox="0 0 500 150" id="svg2" version="1.1" inkscape:version="0.91 r13725" sodipodi:docname="icon-internet.svg" inkscape:export-filename="/Users/stuartlowe/Projects/classroom-rocket-scientist/classroom-rocket-scientist/images/icon-internet.png" inkscape:export-xdpi="90" inkscape:export-ydpi="90">
  <defs id="defs4">
    <clipPath clipPathUnits="userSpaceOnUse" id="clipPath4175">
      <rect ry="0" y="883.15" x="-124.36" height="218.82" width="729.42" id="rect4177" style="opacity:1;fill:#1c661d;fill-opacity:1;stroke:none;stroke-width:5;stroke-linecap:round;stroke-linejoin:round;stroke-miterlimit:4;stroke-dasharray:none;stroke-dashoffset:0;stroke-opacity:1" />
    </clipPath>
  </defs>
  <sodipodi:namedview id="base" pagecolor="#ffffff" bordercolor="#666666" borderopacity="1.0" inkscape:pageopacity="0.0" inkscape:pageshadow="2" inkscape:zoom="1.4" inkscape:cx="236.45" inkscape:cy="146.36" inkscape:document-units="px" inkscape:current-layer="layer1" showgrid="false" units="px" fit-margin-top="0" fit-margin-left="0" fit-margin-right="0" fit-margin-bottom="0" inkscape:window-width="1280" inkscape:window-height="752" inkscape:window-x="1" inkscape:window-y="0" inkscape:window-maximized="0" />
  <metadata id="metadata7">
    <rdf:RDF>
      <cc:Work rdf:about="">
        <dc:format>image/svg+xml</dc:format>
        <dc:type rdf:resource="http://purl.org/dc/dcmitype/StillImage" />
        <dc:title></dc:title>
      </cc:Work>
    </rdf:RDF>
  </metadata>
  <g inkscape:label="Layer 1" inkscape:groupmode="layer" id="layer1" transform="translate(0,-902.4)">
    <path style="opacity:1;fill:#f04031;fill-opacity:1;stroke:none;stroke-width:5;stroke-linecap:round;stroke-linejoin:round;stroke-miterlimit:4;stroke-dasharray:none;stroke-dashoffset:0;stroke-opacity:1" d="M 0 0 L 0 150 L 500 150 L 500 0 L 0 0 z M 250.78 37.23 C 268.45 37.23 284.78 43.339 297.78 53.449 C 300.45 55.559 300.78 59.451 298.45 61.891 L 297.23 63.23 C 295.23 65.56 291.78 65.89 289.34 64.01 C 278.67 55.78 265.23 50.779 250.67 50.779 C 235.56 50.779 221.67 56.12 210.78 65.01 C 208.45 66.89 204.89 66.669 202.78 64.449 L 201.56 63.119 C 199.23 60.669 199.56 56.78 202.12 54.67 C 215.45 43.78 232.34 37.23 250.78 37.23 z M 250.78 57.67 C 262.89 57.67 274.12 61.559 283.34 68.119 C 286.12 70.229 286.67 74.23 284.23 76.67 L 283.12 78 C 281.23 80.23 277.89 80.67 275.45 79 C 268.56 74.01 260 71.119 250.78 71.119 C 241.23 71.119 232.34 74.34 225.23 79.67 C 222.78 81.45 219.45 81.23 217.34 79 L 216.12 77.67 C 213.67 75.12 214.12 71.12 216.89 69.01 C 226.34 61.89 238.12 57.67 250.78 57.67 z M 250.78 79.449 C 257.23 79.449 263.23 81.23 268.34 84.34 C 271.45 86.23 272.12 90.56 269.78 93.23 L 268.56 94.561 C 266.67 96.671 263.67 97.12 261.23 95.67 C 258.12 93.89 254.56 92.891 250.78 92.891 C 246.67 92.891 242.78 94.119 239.56 96.119 C 237.23 97.699 234.12 97.119 232.23 95.119 L 231.01 93.779 C 228.56 91.119 229.12 86.891 232.23 84.891 C 237.56 81.451 244.01 79.449 250.78 79.449 z M 250.45 99.223 A 6.7777 6.7777 0 0 1 257.23 106 A 6.7777 6.7777 0 0 1 250.45 112.78 A 6.7777 6.7777 0 0 1 243.67 106 A 6.7777 6.7777 0 0 1 250.45 99.223 z " transform="translate(0,902.4)" id="rect4136" />
    <g style="display:none" display="none" id="g4403" transform="matrix(1.1667,0,0,1.1667,191.66,920.06)">
      <rect style="display:inline;fill:#000000" x="5" y="5" display="inline" width="90" height="90" id="rect4405" />
    </g>
    <g style="display:none" display="none" id="g5043" transform="matrix(1.1111,0,0,1.1111,194.45,921.85)">
      <rect style="display:inline;fill:#000000" x="5" y="4.5" display="inline" width="90" height="91" id="rect5045" />
    </g>
  </g>
</svg>
