<?xml version="1.0" encoding="UTF-8" standalone="no"?>
<!-- Created with Inkscape (http://www.inkscape.org/) -->

<svg xmlns:dc="http://purl.org/dc/elements/1.1/" xmlns:cc="http://creativecommons.org/ns#" xmlns:rdf="http://www.w3.org/1999/02/22-rdf-syntax-ns#" xmlns:svg="http://www.w3.org/2000/svg" xmlns="http://www.w3.org/2000/svg" xmlns:sodipodi="http://sodipodi.sourceforge.net/DTD/sodipodi-0.dtd" xmlns:inkscape="http://www.inkscape.org/namespaces/inkscape" width="500" height="150" viewBox="0 0 500 150" id="svg2" version="1.1" inkscape:version="0.91 r13725" sodipodi:docname="icon-phone.svg" inkscape:export-filename="/Users/stuartlowe/Projects/classroom-rocket-scientist/classroom-rocket-scientist/images/icon-surface.png" inkscape:export-xdpi="90" inkscape:export-ydpi="90">
  <defs id="defs4">
    <clipPath clipPathUnits="userSpaceOnUse" id="clipPath4175">
      <rect ry="0" y="883.15" x="-124.36" height="218.82" width="729.42" id="rect4177" style="opacity:1;fill:#1c661d;fill-opacity:1;stroke:none;stroke-width:5;stroke-linecap:round;stroke-linejoin:round;stroke-miterlimit:4;stroke-dasharray:none;stroke-dashoffset:0;stroke-opacity:1" />
    </clipPath>
  </defs>
  <sodipodi:namedview id="base" pagecolor="#ffffff" bordercolor="#666666" borderopacity="1.0" inkscape:pageopacity="0.0" inkscape:pageshadow="2" inkscape:zoom="1.4" inkscape:cx="236.45" inkscape:cy="146.36" inkscape:document-units="px" inkscape:current-layer="layer1" showgrid="false" units="px" fit-margin-top="0" fit-margin-left="0" fit-margin-right="0" fit-margin-bottom="0" inkscape:window-width="1280" inkscape:window-height="752" inkscape:window-x="1" inkscape:window-y="0" inkscape:window-maximized="0" />
  <metadata id="metadata7">
    <rdf:RDF>
      <cc:Work rdf:about="">
        <dc:format>image/svg+xml</dc:format>
        <dc:type rdf:resource="http://purl.org/dc/dcmitype/StillImage" />
        <dc:title></dc:title>
      </cc:Work>
    </rdf:RDF>
  </metadata>
  <g inkscape:label="Layer 1" inkscape:groupmode="layer" id="layer1" transform="translate(0,-902.4)">
    <path style="opacity:1;fill:#f04031;fill-opacity:1;stroke:none;stroke-width:5;stroke-linecap:round;stroke-linejoin:round;stroke-miterlimit:4;stroke-dasharray:none;stroke-dashoffset:0;stroke-opacity:1" d="M 0 0 L 0 150 L 500 150 L 500 0 L 0 0 z M 225.15 27.471 L 233.79 27.471 L 233.79 40.43 L 274.86 40.43 L 274.86 122.5 L 225.15 122.5 L 225.15 59.9 L 225.15 40.43 L 225.15 27.471 z M 233.79 49.09 L 233.79 59.9 L 233.79 77.18 L 266.22 77.18 L 266.22 49.09 L 233.79 49.09 z M 233.79 83.67 L 233.79 90.16 L 240.28 90.16 L 240.28 83.67 L 233.79 83.67 z M 246.77 83.67 L 246.77 90.16 L 253.25 90.16 L 253.25 83.67 L 246.77 83.67 z M 259.73 83.67 L 259.73 90.16 L 266.22 90.16 L 266.22 83.67 L 259.73 83.67 z M 233.79 96.631 L 233.79 103.1 L 240.28 103.1 L 240.28 96.631 L 233.79 96.631 z M 246.77 96.631 L 246.77 103.1 L 253.25 103.1 L 253.25 96.631 L 246.77 96.631 z M 259.73 96.631 L 259.73 103.1 L 266.22 103.1 L 266.22 96.631 L 259.73 96.631 z M 233.79 109.6 L 233.79 116 L 240.28 116 L 240.28 109.6 L 233.79 109.6 z M 246.77 109.6 L 246.77 116 L 253.25 116 L 253.25 109.6 L 246.77 109.6 z M 259.73 109.6 L 259.73 116 L 266.22 116 L 266.22 109.6 L 259.73 109.6 z " transform="translate(0,902.4)" id="rect4136" />
    <g style="display:none" display="none" id="g4403" transform="matrix(1.1667,0,0,1.1667,191.66,920.06)">
      <rect style="display:inline;fill:#000000" x="5" y="5" display="inline" width="90" height="90" id="rect4405" />
    </g>
  </g>
</svg>
