<?xml version="1.0" encoding="UTF-8" standalone="no"?>
<svg
   xmlns:dc="http://purl.org/dc/elements/1.1/"
   xmlns:cc="http://creativecommons.org/ns#"
   xmlns:rdf="http://www.w3.org/1999/02/22-rdf-syntax-ns#"
   xmlns:svg="http://www.w3.org/2000/svg"
   xmlns="http://www.w3.org/2000/svg"
   xmlns:sodipodi="http://sodipodi.sourceforge.net/DTD/sodipodi-0.dtd"
   xmlns:inkscape="http://www.inkscape.org/namespaces/inkscape"
   enable-background="new 0 0 64 64"
   height="64px"
   id="Layer_1"
   version="1.1"
   viewBox="0 0 64 64"
   width="64px"
   xml:space="preserve"
   inkscape:version="0.91 r13725"
   sodipodi:docname="atomic-clock.svg"><metadata
     id="metadata15"><rdf:RDF><cc:Work
         rdf:about=""><dc:format>image/svg+xml</dc:format><dc:type
           rdf:resource="http://purl.org/dc/dcmitype/StillImage" /><dc:title /></cc:Work></rdf:RDF></metadata><defs
     id="defs13" /><sodipodi:namedview
     pagecolor="#ffffff"
     bordercolor="#666666"
     borderopacity="1"
     objecttolerance="10"
     gridtolerance="10"
     guidetolerance="10"
     inkscape:pageopacity="0"
     inkscape:pageshadow="2"
     inkscape:window-width="1123"
     inkscape:window-height="777"
     id="namedview11"
     showgrid="false"
     inkscape:zoom="3.6875"
     inkscape:cx="-51.389831"
     inkscape:cy="32"
     inkscape:window-x="0"
     inkscape:window-y="0"
     inkscape:window-maximized="0"
     inkscape:current-layer="Layer_1" /><g
     id="g3"><path
       d="M28.641,12.411h6.834c0.659,0,1.199-0.54,1.199-1.199V9.333c0-0.659-0.54-1.199-1.199-1.199h-6.834   c-0.659,0-1.199,0.54-1.199,1.199v1.879C27.441,11.871,27.981,12.411,28.641,12.411z"
       id="path5" /><path
       d="M32,13.971c-5.797,0-11.049,2.369-14.846,6.188l4.554,3.288c2.745-2.479,6.368-4.003,10.35-4.003   c8.533,0,15.475,6.942,15.475,15.475s-6.941,15.475-15.475,15.475s-15.475-6.941-15.475-15.475c0-3.775,1.362-7.235,3.617-9.924   l-3.42-4.423c-3.539,3.753-5.726,8.794-5.726,14.347c0,11.551,9.396,20.948,20.946,20.948s20.946-9.397,20.946-20.948   C52.946,23.368,43.55,13.971,32,13.971z"
       id="path7" /><path
       d="M32.158,38.364c-1.06,0-1.994-0.508-2.602-1.283l-0.006,0.008l-7.569-9.789c-1.609,2.122-2.575,4.756-2.575,7.618   c0,6.976,5.675,12.65,12.651,12.65s12.65-5.675,12.65-12.65s-5.675-12.651-12.65-12.651c-3.037,0-5.827,1.077-8.01,2.868   l9.818,7.088l-0.006,0.008c0.961,0.578,1.609,1.621,1.609,2.824C35.469,36.882,33.988,38.364,32.158,38.364z"
       id="path9" /></g><rect
     style="opacity:1;fill:#000000;fill-opacity:0.98431373;stroke:none;stroke-width:0.30000001;stroke-linecap:round;stroke-linejoin:round;stroke-miterlimit:4;stroke-dasharray:none;stroke-opacity:1"
     id="rect4138"
     width="4.3389831"
     height="7.3220339"
     x="29.830507"
     y="10.033898" /></svg>