<?xml version="1.0" encoding="UTF-8" standalone="no"?>
<svg
   xmlns:dc="http://purl.org/dc/elements/1.1/"
   xmlns:cc="http://creativecommons.org/ns#"
   xmlns:rdf="http://www.w3.org/1999/02/22-rdf-syntax-ns#"
   xmlns:svg="http://www.w3.org/2000/svg"
   xmlns="http://www.w3.org/2000/svg"
   xmlns:sodipodi="http://sodipodi.sourceforge.net/DTD/sodipodi-0.dtd"
   xmlns:inkscape="http://www.inkscape.org/namespaces/inkscape"
   enable-background="new 0 0 64 64"
   height="32"
   id="Layer_1"
   version="1.1"
   viewBox="0 0 32 32"
   width="32"
   xml:space="preserve"
   inkscape:version="0.91 r13725"
   sodipodi:docname="atomic-clock2.svg"><metadata
     id="metadata15"><rdf:RDF><cc:Work
         rdf:about=""><dc:format>image/svg+xml</dc:format><dc:type
           rdf:resource="http://purl.org/dc/dcmitype/StillImage" /><dc:title></dc:title></cc:Work></rdf:RDF></metadata><defs
     id="defs13" /><sodipodi:namedview
     pagecolor="#ffffff"
     bordercolor="#666666"
     borderopacity="1"
     objecttolerance="10"
     gridtolerance="10"
     guidetolerance="10"
     inkscape:pageopacity="0"
     inkscape:pageshadow="2"
     inkscape:window-width="1391"
     inkscape:window-height="889"
     id="namedview11"
     showgrid="true"
     inkscape:zoom="7.375"
     inkscape:cx="-9.1906638"
     inkscape:cy="32"
     inkscape:window-x="0"
     inkscape:window-y="0"
     inkscape:window-maximized="0"
     inkscape:current-layer="Layer_1"><inkscape:grid
       type="xygrid"
       id="grid4809" /></sodipodi:namedview><path
     style="opacity:1;fill:#000000;fill-opacity:0.98431373;stroke:none;stroke-width:0.30000001;stroke-linecap:round;stroke-linejoin:round;stroke-miterlimit:4;stroke-dasharray:none;stroke-opacity:1"
     d="M 7.0543494,3.6134958 A 4.6140965,4.6140965 0 0 0 2.4409141,8.2280778 4.6140965,4.6140965 0 0 0 4.3316631,11.946559 12.410329,12.410329 0 0 1 10.681157,5.3747605 4.6140965,4.6140965 0 0 0 7.0543494,3.6134958 Z"
     id="circle4162"
     inkscape:connector-curvature="0" /><g
     id="g3"
     transform="matrix(0.58670625,0,0,0.58670625,-2.4915346,-3.5459793)"><path
       d="m 28.641,12.411 6.834,0 c 0.659,0 1.199,-0.54 1.199,-1.199 l 0,-1.879 c 0,-0.659 -0.54,-1.199 -1.199,-1.199 l -6.834,0 c -0.659,0 -1.199,0.54 -1.199,1.199 l 0,1.879 c -0.001,0.659 0.539,1.199 1.199,1.199 z"
       id="path5"
       inkscape:connector-curvature="0" /><path
       d="m 32,13.971 c -5.797,0 -11.049,2.369 -14.846,6.188 l 4.554,3.288 c 2.745,-2.479 6.368,-4.003 10.35,-4.003 8.533,0 15.475,6.942 15.475,15.475 0,8.533 -6.941,15.475 -15.475,15.475 -8.534,0 -15.475,-6.941 -15.475,-15.475 0,-3.775 1.362,-7.235 3.617,-9.924 l -3.42,-4.423 c -3.539,3.753 -5.726,8.794 -5.726,14.347 0,11.551 9.396,20.948 20.946,20.948 11.55,0 20.946,-9.397 20.946,-20.948 C 52.946,23.368 43.55,13.971 32,13.971 Z"
       id="path7"
       inkscape:connector-curvature="0" /><path
       d="m 32.158,38.364 c -1.06,0 -1.994,-0.508 -2.602,-1.283 L 29.55,37.089 21.981,27.3 c -1.609,2.122 -2.575,4.756 -2.575,7.618 0,6.976 5.675,12.65 12.651,12.65 6.976,0 12.65,-5.675 12.65,-12.65 0,-6.975 -5.675,-12.651 -12.65,-12.651 -3.037,0 -5.827,1.077 -8.01,2.868 l 9.818,7.088 -0.006,0.008 c 0.961,0.578 1.609,1.621 1.609,2.824 10e-4,1.827 -1.48,3.309 -3.31,3.309 z"
       id="path9"
       inkscape:connector-curvature="0" /></g><rect
     style="opacity:1;fill:#000000;fill-opacity:0.98431373;stroke:none;stroke-width:0.30000001;stroke-linecap:round;stroke-linejoin:round;stroke-miterlimit:4;stroke-dasharray:none;stroke-opacity:1"
     id="rect4138"
     width="2.5457084"
     height="4.2958832"
     x="15.010211"
     y="2.3409715" /><path
     inkscape:connector-curvature="0"
     id="path4169"
     d="M 25.160534,3.4543893 A 4.6140965,4.6140965 0 0 1 29.77397,8.0689712 4.6140965,4.6140965 0 0 1 27.883221,11.787452 12.410329,12.410329 0 0 0 21.533728,5.215654 4.6140965,4.6140965 0 0 1 25.160534,3.4543893 Z"
     style="opacity:1;fill:#000000;fill-opacity:0.98431373;stroke:none;stroke-width:0.30000001;stroke-linecap:round;stroke-linejoin:round;stroke-miterlimit:4;stroke-dasharray:none;stroke-opacity:1" /><rect
     y="35.255363"
     x="-6.0368137"
     height="4.2958832"
     width="2.5457084"
     id="rect4171"
     style="opacity:1;fill:#000000;fill-opacity:0.98431373;stroke:none;stroke-width:0.30000001;stroke-linecap:round;stroke-linejoin:round;stroke-miterlimit:4;stroke-dasharray:none;stroke-opacity:1"
     transform="matrix(-0.82568445,0.56413224,0.56413224,0.82568445,0,0)"
     inkscape:transform-center-x="-3.0230282"
     inkscape:transform-center-y="-3.0230287" /><rect
     inkscape:transform-center-y="-3.02303"
     inkscape:transform-center-x="3.0230281"
     transform="matrix(0.82568445,0.56413224,-0.56413224,0.82568445,0,0)"
     style="opacity:1;fill:#000000;fill-opacity:0.98431373;stroke:none;stroke-width:0.30000001;stroke-linecap:round;stroke-linejoin:round;stroke-miterlimit:4;stroke-dasharray:none;stroke-opacity:1"
     id="rect4173"
     width="2.5457084"
     height="4.2958832"
     x="21.246649"
     y="16.614487" /></svg>