<?xml version="1.0" encoding="UTF-8" standalone="no"?>
<!-- Generator: Adobe Illustrator 13.0.0, SVG Export Plug-In . SVG Version: 6.00 Build 14948)  -->

<svg
   xmlns:dc="http://purl.org/dc/elements/1.1/"
   xmlns:cc="http://creativecommons.org/ns#"
   xmlns:rdf="http://www.w3.org/1999/02/22-rdf-syntax-ns#"
   xmlns:svg="http://www.w3.org/2000/svg"
   xmlns="http://www.w3.org/2000/svg"
   xmlns:sodipodi="http://sodipodi.sourceforge.net/DTD/sodipodi-0.dtd"
   xmlns:inkscape="http://www.inkscape.org/namespaces/inkscape"
   version="1.1"
   id="Layer_1"
   x="0px"
   y="0px"
   width="128"
   height="64"
   viewBox="0 0 128 64.000001"
   enable-background="new 0 0 302.714 723.683"
   xml:space="preserve"
   inkscape:version="0.91 r13725"
   sodipodi:docname="icon-altimeter.svg"
   inkscape:export-filename="/Users/chrisnorth/Github/classroom-rocket-scientist/images/png/icon-radio-tx.png"
   inkscape:export-xdpi="305.26999"
   inkscape:export-ydpi="305.26999"><metadata
     id="metadata242"><rdf:RDF><cc:Work
         rdf:about=""><dc:format>image/svg+xml</dc:format><dc:type
           rdf:resource="http://purl.org/dc/dcmitype/StillImage" /><dc:title></dc:title></cc:Work></rdf:RDF></metadata><defs
     id="defs240" /><sodipodi:namedview
     pagecolor="#ffffff"
     bordercolor="#666666"
     borderopacity="1"
     objecttolerance="10"
     gridtolerance="10"
     guidetolerance="10"
     inkscape:pageopacity="0"
     inkscape:pageshadow="2"
     inkscape:window-width="1558"
     inkscape:window-height="896"
     id="namedview238"
     showgrid="false"
     inkscape:zoom="3.7289"
     inkscape:cx="10.56093"
     inkscape:cy="49.892048"
     inkscape:window-x="0"
     inkscape:window-y="0"
     inkscape:window-maximized="0"
     inkscape:current-layer="layer2" /><g
     inkscape:groupmode="layer"
     id="layer1"
     inkscape:label="BG" /><g
     inkscape:groupmode="layer"
     id="layer2"
     inkscape:label="Icon"><path
       style="fill:#898989;fill-opacity:1;fill-rule:evenodd;stroke:none;stroke-width:1px;stroke-linecap:butt;stroke-linejoin:miter;stroke-opacity:1"
       d="M 0,64 C 0,64 -1.0807691,62.297967 0,60.467934 1.080769,58.637901 4.3230762,56.679867 5.8179041,56.167863 8.80756,55.143856 16.785784,51.858705 19.576819,51.395747 c 5.58207,-0.925917 11.112505,-2.000866 15.554184,-0.536351 4.441679,1.464515 12.768724,6.280045 17.431415,5.899863 4.66269,-0.380182 5.29004,-0.466598 10.727024,-2.145405 5.436984,-1.678807 8.959945,-5.473949 14.481482,-7.508917 5.521537,-2.034968 13.573757,-4.874785 18.504117,-4.29081 4.930359,0.583975 6.400169,2.481705 9.654319,4.827161 3.25415,2.345456 5.39845,9.741734 8.84979,10.727024 1.72568,0.492645 6.95511,-1.853892 8.53501,-2.44636 0.78995,-0.296234 3.71187,0.918751 4.68584,3.012322 C 128.97397,61.027844 128,64 128,64"
       id="path4223"
       inkscape:connector-curvature="0"
       sodipodi:nodetypes="cssszzzzzzsssc" /><rect
       style="opacity:0.98999999;fill:#000000;fill-opacity:1;stroke:none;stroke-width:0;stroke-linecap:round;stroke-linejoin:miter;stroke-miterlimit:4;stroke-dasharray:none;stroke-dashoffset:0;stroke-opacity:1"
       id="rect4227"
       width="7"
       height="7.0000005"
       x="44.785328"
       y="7.3875136" /><path
       style="fill:none;fill-rule:evenodd;stroke:#000000;stroke-width:1px;stroke-linecap:butt;stroke-linejoin:miter;stroke-opacity:1"
       d="M 45.589852,15.192041 52.026066,55.954732 68.92113,14.923865"
       id="path4229"
       inkscape:connector-curvature="0"
       sodipodi:nodetypes="ccc" /><rect
       y="7.6556892"
       x="64.093971"
       height="7.0000005"
       width="7"
       id="rect4231"
       style="opacity:0.98999999;fill:#000000;fill-opacity:1;stroke:none;stroke-width:0;stroke-linecap:round;stroke-linejoin:miter;stroke-miterlimit:4;stroke-dasharray:none;stroke-dashoffset:0;stroke-opacity:1" /></g></svg>