<?xml version="1.0" encoding="UTF-8" standalone="no"?>
<!-- Created with Inkscape (http://www.inkscape.org/) -->

<svg xmlns:dc="http://purl.org/dc/elements/1.1/" xmlns:cc="http://creativecommons.org/ns#" xmlns:rdf="http://www.w3.org/1999/02/22-rdf-syntax-ns#" xmlns:svg="http://www.w3.org/2000/svg" xmlns="http://www.w3.org/2000/svg" xmlns:sodipodi="http://sodipodi.sourceforge.net/DTD/sodipodi-0.dtd" xmlns:inkscape="http://www.inkscape.org/namespaces/inkscape" width="64" height="64" viewBox="0 0 64.000001 64.000001" id="svg4378" version="1.1" inkscape:version="0.91 r13725" sodipodi:docname="icon-phone.svg" inkscape:export-filename="/Users/stuartlowe/Projects/classroom-rocket-scientist/classroom-rocket-scientist/images/png/phone.png" inkscape:export-xdpi="90" inkscape:export-ydpi="90">
  <defs id="defs4380" />
  <sodipodi:namedview id="base" pagecolor="#ffffff" bordercolor="#666666" borderopacity="1.0" inkscape:pageopacity="0.0" inkscape:pageshadow="2" inkscape:zoom="5.8594" inkscape:cx="46.91" inkscape:cy="18.156" inkscape:document-units="px" inkscape:current-layer="layer3" showgrid="false" units="px" inkscape:window-width="1280" inkscape:window-height="751" inkscape:window-x="0" inkscape:window-y="1" inkscape:window-maximized="1" />
  <metadata id="metadata4383">
    <rdf:RDF>
      <cc:Work rdf:about="">
        <dc:format>image/svg+xml</dc:format>
        <dc:type rdf:resource="http://purl.org/dc/dcmitype/StillImage" />
        <dc:title />
      </cc:Work>
    </rdf:RDF>
  </metadata>
  <g inkscape:groupmode="layer" id="layer3" inkscape:label="New">
    <g id="g4182" style="fill:#ffffff">
      <path id="path4157" d="M 21.676 24.576 C 19.914 24.576 19.043 25.477 18.604 26.367 L 5.9688 51.957 C 5.1773 53.56 5.8558 55.809 8.1914 55.809 L 55.553 55.809 C 57.334 55.809 59.099 54.509 57.941 52.139 L 45.396 26.453 C 44.87 25.375 44.377 24.576 42.324 24.576 L 21.676 24.576 z M 21.818 28.773 L 27.188 28.773 L 27.188 34.143 L 21.818 34.143 L 21.818 28.773 z M 29.316 28.773 L 34.684 28.773 L 34.684 34.143 L 29.316 34.143 L 29.316 28.773 z M 36.814 28.773 L 42.182 28.773 L 42.182 34.143 L 36.814 34.143 L 36.814 28.773 z M 21.818 36.457 L 27.188 36.457 L 27.188 41.826 L 21.818 41.826 L 21.818 36.457 z M 29.316 36.457 L 34.684 36.457 L 34.684 41.826 L 29.316 41.826 L 29.316 36.457 z M 36.814 36.457 L 42.182 36.457 L 42.182 41.826 L 36.814 41.826 L 36.814 36.457 z M 21.818 44.141 L 27.188 44.141 L 27.188 49.51 L 21.818 49.51 L 21.818 44.141 z M 29.316 44.141 L 34.684 44.141 L 34.684 49.51 L 29.316 49.51 L 29.316 44.141 z M 36.814 44.141 L 42.182 44.141 L 42.182 49.51 L 36.814 49.51 L 36.814 44.141 z " style="fill:#ffffff;fill-rule:evenodd;stroke:none;stroke-width:1px;stroke-linecap:butt;stroke-linejoin:miter;stroke-opacity:1" />
      <path inkscape:connector-curvature="0" id="path4146" d="m 12.933,22.711 a 7.3122,7.3131 0 0 1 -7.313,-7.312 7.3122,7.3131 0 0 1 6.849,-7.291 l 0,-0.023 0.464,0 38.134,0 0.09,0 0,0 a 7.3122,7.3131 0 0 1 7.22,7.31 7.3122,7.3131 0 0 1 -7.313,7.312 7.3122,7.3131 0 0 1 -6.551,-4.073 l -25.032,0 a 7.3122,7.3131 0 0 1 -6.551,4.073 z" style="opacity:0.99;fill:#ffffff;fill-opacity:1;stroke:none;stroke-width:5;stroke-linecap:square;stroke-linejoin:miter;stroke-miterlimit:4;stroke-dasharray:none;stroke-dashoffset:0;stroke-opacity:1" />
    </g>
  </g>
</svg>
