<?xml version="1.0" encoding="UTF-8" standalone="no"?>
<!-- Created with Inkscape (http://www.inkscape.org/) -->

<svg xmlns:dc="http://purl.org/dc/elements/1.1/" xmlns:cc="http://creativecommons.org/ns#" xmlns:rdf="http://www.w3.org/1999/02/22-rdf-syntax-ns#" xmlns:svg="http://www.w3.org/2000/svg" xmlns="http://www.w3.org/2000/svg" xmlns:sodipodi="http://sodipodi.sourceforge.net/DTD/sodipodi-0.dtd" xmlns:inkscape="http://www.inkscape.org/namespaces/inkscape" width="64" height="64" viewBox="0 0 64.000001 64.000001" id="svg4378" version="1.1" inkscape:version="0.91 r13725" sodipodi:docname="icon-tv.svg" inkscape:export-filename="/Users/stuartlowe/Projects/classroom-rocket-scientist/classroom-rocket-scientist/images/png/icon-tv.png" inkscape:export-xdpi="90" inkscape:export-ydpi="90">
  <defs id="defs4380" />
  <sodipodi:namedview id="base" pagecolor="#ffffff" bordercolor="#666666" borderopacity="1.0" inkscape:pageopacity="0.0" inkscape:pageshadow="2" inkscape:zoom="8.2864" inkscape:cx="29.87" inkscape:cy="35.984" inkscape:document-units="px" inkscape:current-layer="layer3" showgrid="false" units="px" inkscape:window-width="1280" inkscape:window-height="751" inkscape:window-x="0" inkscape:window-y="1" inkscape:window-maximized="1" />
  <metadata id="metadata4383">
    <rdf:RDF>
      <cc:Work rdf:about="">
        <dc:format>image/svg+xml</dc:format>
        <dc:type rdf:resource="http://purl.org/dc/dcmitype/StillImage" />
        <dc:title></dc:title>
      </cc:Work>
    </rdf:RDF>
  </metadata>
  <g inkscape:groupmode="layer" id="layer3" inkscape:label="New">
    <path style="opacity:1;fill:#ffffff;fill-opacity:1;stroke:none;stroke-width:3;stroke-linecap:round;stroke-linejoin:round;stroke-miterlimit:4;stroke-dasharray:none;stroke-dashoffset:0;stroke-opacity:1" d="M 6.4648 12.711 C 5.3568 12.711 4.4648 13.603 4.4648 14.711 L 4.4648 43.777 C 4.4648 44.885 5.3568 45.777 6.4648 45.777 L 24.943 45.777 L 24.943 48.191 L 19.74 48.191 C 18.632 48.191 17.74 48.891 17.74 49.76 C 17.74 50.629 18.632 51.328 19.74 51.328 L 44.1 51.328 C 45.208 51.328 46.1 50.629 46.1 49.76 C 46.1 48.891 45.208 48.191 44.1 48.191 L 39.059 48.191 L 39.059 45.777 L 57.375 45.777 C 58.483 45.777 59.375 44.885 59.375 43.777 L 59.375 14.711 C 59.375 13.603 58.483 12.711 57.375 12.711 L 6.4648 12.711 z M 7.6035 15.729 L 56.236 15.729 L 56.236 42.76 L 7.6035 42.76 L 7.6035 15.729 z " id="rect4146" />
  </g>
</svg>
