<?xml version="1.0" encoding="UTF-8" standalone="no"?>
<!-- Generator: Adobe Illustrator 16.0.0, SVG Export Plug-In . SVG Version: 6.00 Build 0)  -->

<svg
   xmlns:dc="http://purl.org/dc/elements/1.1/"
   xmlns:cc="http://creativecommons.org/ns#"
   xmlns:rdf="http://www.w3.org/1999/02/22-rdf-syntax-ns#"
   xmlns:svg="http://www.w3.org/2000/svg"
   xmlns="http://www.w3.org/2000/svg"
   xmlns:sodipodi="http://sodipodi.sourceforge.net/DTD/sodipodi-0.dtd"
   xmlns:inkscape="http://www.inkscape.org/namespaces/inkscape"
   version="1.1"
   id="Layer_1"
   x="0px"
   y="0px"
   width="32"
   height="32"
   viewBox="0 0 32 32"
   enable-background="new 0 0 512 512"
   xml:space="preserve"
   inkscape:version="0.91 r13725"
   sodipodi:docname="internet-encoder.svg"><metadata
     id="metadata17"><rdf:RDF><cc:Work
         rdf:about=""><dc:format>image/svg+xml</dc:format><dc:type
           rdf:resource="http://purl.org/dc/dcmitype/StillImage" /><dc:title /></cc:Work></rdf:RDF></metadata><defs
     id="defs15" /><sodipodi:namedview
     pagecolor="#ffffff"
     bordercolor="#666666"
     borderopacity="1"
     objecttolerance="10"
     gridtolerance="10"
     guidetolerance="10"
     inkscape:pageopacity="0"
     inkscape:pageshadow="2"
     inkscape:window-width="1280"
     inkscape:window-height="756"
     id="namedview13"
     showgrid="true"
     inkscape:zoom="3.6875"
     inkscape:cx="19.417117"
     inkscape:cy="18.252866"
     inkscape:window-x="0"
     inkscape:window-y="1"
     inkscape:window-maximized="0"
     inkscape:current-layer="Layer_1"><inkscape:grid
       type="xygrid"
       id="grid4145" /></sodipodi:namedview><path
     style="fill:#020202"
     d="M 12.609375 4.7988281 C 12.554109 4.8086179 12.498694 4.8170661 12.443359 4.8261719 L 12.443359 4.828125 L 12.609375 4.8066406 L 12.609375 4.7988281 z M 10.039062 5.4257812 C 6.9278343 6.3753458 4.0297987 8.0194488 1.6777344 10.271484 C 1.4241741 10.501446 1.2024563 10.789509 1.1425781 11.134766 C 0.93037884 12.096538 1.839028 13.12506 2.8222656 13.009766 C 3.2147828 12.990559 3.5572901 12.76697 3.8242188 12.494141 C 6.2476487 10.190048 9.3301814 8.6035206 12.603516 7.9316406 L 12.539062 7.4082031 L 10.357422 7.6816406 L 10.167969 6.1933594 L 10.144531 6.1953125 L 10.039062 5.4257812 z "
     id="path5" /><path
     style="fill:#020202"
     d="M 15.119141 10.25 C 14.951888 10.262502 14.783997 10.272872 14.617188 10.291016 C 11.16688 10.645121 7.8494944 12.205765 5.3964844 14.660156 C 4.8649484 15.213847 4.9110903 16.168782 5.4648438 16.691406 C 5.9785554 17.333215 7.0405657 17.402101 7.6113281 16.798828 C 10.086493 14.34952 13.639007 13.031982 17.115234 13.320312 C 17.321252 13.335377 17.525745 13.366573 17.730469 13.392578 L 17.460938 11.251953 L 15.279297 11.527344 L 15.119141 10.25 z M 19.921875 13.15625 L 17.888672 13.412109 C 18.613413 13.514202 19.3256 13.689046 20.019531 13.919922 L 19.921875 13.15625 z "
     id="path7" /><path
     d="m 15.283118,15.981905 c 2.844021,-0.282368 5.784256,0.806624 7.763284,2.866301 0.541891,0.564047 0.47913,1.534795 -0.0917,2.056728 -0.518229,0.625491 -1.55695,0.667668 -2.120243,0.08134 -1.115542,-1.145104 -2.660754,-1.868945 -4.260571,-1.956184 -1.815657,-0.129418 -3.652841,0.58777 -4.942173,1.863732 -0.317137,0.356428 -0.788107,0.575219 -1.270124,0.518355 C 9.2423474,21.333727 8.4653477,19.839599 9.2363851,18.94285 10.793334,17.254287 13.004585,16.208161 15.283114,15.981902 Z"
     id="path9"
     inkscape:connector-curvature="0"
     style="fill:#020202" /><path
     d="m 15.721514,21.296698 c 1.83273,-0.307537 3.692759,1.205855 3.751944,3.064318 0.170024,1.822371 -1.438705,3.551668 -3.267605,3.511624 -1.64419,0.05699 -3.167938,-1.30703 -3.312105,-2.942307 -0.234417,-1.716679 1.108136,-3.435494 2.827766,-3.633635 z"
     id="path11"
     inkscape:connector-curvature="0"
     style="fill:#020202" /><rect
     style="opacity:1;fill:#000000;fill-opacity:0.98431373;fill-rule:nonzero;stroke:none;stroke-width:0.30000001;stroke-linecap:round;stroke-linejoin:round;stroke-miterlimit:4;stroke-dasharray:none;stroke-opacity:1"
     id="rect4209"
     width="2.254235"
     height="2.254235"
     x="13.68307"
     y="6.6315007"
     transform="matrix(0.99211102,-0.12536237,0.12536237,0.99211102,0,0)" /><rect
     y="11.063557"
     x="18.084557"
     height="2.254235"
     width="2.254235"
     id="rect4213"
     style="opacity:1;fill:#000000;fill-opacity:0.98431373;fill-rule:nonzero;stroke:none;stroke-width:0.30000001;stroke-linecap:round;stroke-linejoin:round;stroke-miterlimit:4;stroke-dasharray:none;stroke-opacity:1"
     transform="matrix(0.99211102,-0.12536237,0.12536237,0.99211102,0,0)" /><rect
     style="opacity:1;fill:#000000;fill-opacity:0.98431373;fill-rule:nonzero;stroke:none;stroke-width:0.30000001;stroke-linecap:round;stroke-linejoin:round;stroke-miterlimit:4;stroke-dasharray:none;stroke-opacity:1"
     id="rect4215"
     width="2.254235"
     height="2.254235"
     x="20.281704"
     y="13.260704"
     transform="matrix(0.99211102,-0.12536237,0.12536237,0.99211102,0,0)" /><rect
     y="8.142333"
     x="18.715939"
     height="2.254235"
     width="2.254235"
     id="rect4223"
     style="opacity:1;fill:#000000;fill-opacity:0.98431373;fill-rule:nonzero;stroke:none;stroke-width:0.30000001;stroke-linecap:round;stroke-linejoin:round;stroke-miterlimit:4;stroke-dasharray:none;stroke-opacity:1"
     transform="matrix(0.99211102,-0.12536237,0.12536237,0.99211102,0,0)" /><rect
     transform="matrix(0.99211102,-0.12536237,0.12536237,0.99211102,0,0)"
     y="10.919896"
     x="22.479515"
     height="2.254235"
     width="2.254235"
     id="rect4304"
     style="opacity:1;fill:#000000;fill-opacity:0.98431373;fill-rule:nonzero;stroke:none;stroke-width:0.30000001;stroke-linecap:round;stroke-linejoin:round;stroke-miterlimit:4;stroke-dasharray:none;stroke-opacity:1" /><rect
     style="opacity:1;fill:#000000;fill-opacity:0.98431373;fill-rule:nonzero;stroke:none;stroke-width:0.30000001;stroke-linecap:round;stroke-linejoin:round;stroke-miterlimit:4;stroke-dasharray:none;stroke-opacity:1"
     id="rect4306"
     width="2.254235"
     height="2.254235"
     x="22.49675"
     y="6.6437178"
     transform="matrix(0.99211102,-0.12536237,0.12536237,0.99211102,0,0)" /><rect
     transform="matrix(0.99211102,-0.12536237,0.12536237,0.99211102,0,0)"
     y="8.8921547"
     x="11.46459"
     height="2.254235"
     width="2.254235"
     id="rect4216"
     style="opacity:1;fill:#000000;fill-opacity:0.98431373;fill-rule:nonzero;stroke:none;stroke-width:0.30000001;stroke-linecap:round;stroke-linejoin:round;stroke-miterlimit:4;stroke-dasharray:none;stroke-opacity:1" /><rect
     transform="matrix(0.99211102,-0.12536237,0.12536237,0.99211102,0,0)"
     style="opacity:1;fill:#000000;fill-opacity:0.98431373;fill-rule:nonzero;stroke:none;stroke-width:0.30000001;stroke-linecap:round;stroke-linejoin:round;stroke-miterlimit:4;stroke-dasharray:none;stroke-opacity:1"
     id="rect4218"
     width="2.254235"
     height="2.254235"
     x="13.691115"
     y="11.127183" /><rect
     transform="matrix(0.99211102,-0.12536237,0.12536237,0.99211102,0,0)"
     style="opacity:1;fill:#000000;fill-opacity:0.98431373;fill-rule:nonzero;stroke:none;stroke-width:0.30000001;stroke-linecap:round;stroke-linejoin:round;stroke-miterlimit:4;stroke-dasharray:none;stroke-opacity:1"
     id="rect4220"
     width="2.254235"
     height="2.254235"
     x="15.866076"
     y="13.324211" /><rect
     transform="matrix(0.99211102,-0.12536237,0.12536237,0.99211102,0,0)"
     y="17.7257"
     x="20.267565"
     height="2.254235"
     width="2.254235"
     id="rect4222"
     style="opacity:1;fill:#000000;fill-opacity:0.98431373;fill-rule:nonzero;stroke:none;stroke-width:0.30000001;stroke-linecap:round;stroke-linejoin:round;stroke-miterlimit:4;stroke-dasharray:none;stroke-opacity:1" /><rect
     style="opacity:1;fill:#000000;fill-opacity:0.98431373;fill-rule:nonzero;stroke:none;stroke-width:0.30000001;stroke-linecap:round;stroke-linejoin:round;stroke-miterlimit:4;stroke-dasharray:none;stroke-opacity:1"
     id="rect4226"
     width="2.254235"
     height="2.254235"
     x="18.063223"
     y="15.521358"
     transform="matrix(0.99211102,-0.12536237,0.12536237,0.99211102,0,0)" /><rect
     style="opacity:1;fill:#000000;fill-opacity:0.98431373;fill-rule:nonzero;stroke:none;stroke-width:0.30000001;stroke-linecap:round;stroke-linejoin:round;stroke-miterlimit:4;stroke-dasharray:none;stroke-opacity:1"
     id="rect4230"
     width="2.3185849"
     height="2.3185849"
     x="9.2190485"
     y="6.6206517"
     transform="matrix(0.99211102,-0.12536237,0.12536237,0.99211102,0,0)" /></svg>