<?xml version="1.0" encoding="UTF-8" standalone="no"?>
<!-- Generator: Adobe Illustrator 16.0.0, SVG Export Plug-In . SVG Version: 6.00 Build 0)  -->

<svg
   xmlns:dc="http://purl.org/dc/elements/1.1/"
   xmlns:cc="http://creativecommons.org/ns#"
   xmlns:rdf="http://www.w3.org/1999/02/22-rdf-syntax-ns#"
   xmlns:svg="http://www.w3.org/2000/svg"
   xmlns="http://www.w3.org/2000/svg"
   xmlns:sodipodi="http://sodipodi.sourceforge.net/DTD/sodipodi-0.dtd"
   xmlns:inkscape="http://www.inkscape.org/namespaces/inkscape"
   version="1.1"
   id="Layer_1"
   x="0px"
   y="0px"
   width="32"
   height="32"
   viewBox="0 0 32 32"
   enable-background="new 0 0 512 512"
   xml:space="preserve"
   inkscape:version="0.91 r13725"
   sodipodi:docname="internet-encoder.svg"><metadata
     id="metadata17"><rdf:RDF><cc:Work
         rdf:about=""><dc:format>image/svg+xml</dc:format><dc:type
           rdf:resource="http://purl.org/dc/dcmitype/StillImage" /><dc:title></dc:title></cc:Work></rdf:RDF></metadata><defs
     id="defs15" /><sodipodi:namedview
     pagecolor="#ffffff"
     bordercolor="#666666"
     borderopacity="1"
     objecttolerance="10"
     gridtolerance="10"
     guidetolerance="10"
     inkscape:pageopacity="0"
     inkscape:pageshadow="2"
     inkscape:window-width="1685"
     inkscape:window-height="882"
     id="namedview13"
     showgrid="true"
     inkscape:zoom="14.75"
     inkscape:cx="29.043442"
     inkscape:cy="18.138685"
     inkscape:window-x="0"
     inkscape:window-y="1"
     inkscape:window-maximized="0"
     inkscape:current-layer="Layer_1"><inkscape:grid
       type="xygrid"
       id="grid4145" /></sodipodi:namedview><path
     style="fill:#020202"
     d="M 12.609375 4.7988281 C 12.534597 4.8120742 12.459461 4.8221409 12.384766 4.8359375 L 12.609375 4.8066406 L 12.609375 4.7988281 z M 12.28125 4.8574219 C 8.3267152 5.6086027 4.5877803 7.4851954 1.6777344 10.271484 C 1.4241741 10.501446 1.2024563 10.789509 1.1425781 11.134766 C 0.93037872 12.096538 1.839028 13.12506 2.8222656 13.009766 C 3.2147828 12.990559 3.5572901 12.76697 3.8242188 12.494141 C 6.7953178 9.6693491 10.751958 7.8992416 14.84375 7.6054688 L 14.744141 6.8105469 L 12.5625 7.0859375 L 12.28125 4.8574219 z "
     id="path5" /><path
     style="fill:#020202"
     d="M 16.3125 10.205078 C 15.747001 10.200276 15.180528 10.229744 14.617188 10.291016 C 11.16688 10.645121 7.8494944 12.205765 5.3964844 14.660156 C 4.8649484 15.213847 4.9110903 16.168782 5.4648438 16.691406 C 5.9785554 17.333215 7.0405657 17.402101 7.6113281 16.798828 C 10.086493 14.34952 13.639007 13.031982 17.115234 13.320312 C 19.977707 13.529568 22.73738 14.80727 24.779297 16.820312 C 25.351566 17.38072 26.370013 17.311381 26.875 16.693359 C 26.991893 16.585357 27.081895 16.456391 27.154297 16.318359 L 27.089844 16.318359 L 27.095703 16.369141 L 24.859375 16.650391 L 24.589844 14.521484 L 24.568359 14.521484 L 24.568359 14.474609 L 22.404297 14.746094 L 22.126953 12.558594 L 19.941406 12.835938 L 19.666016 10.65625 L 17.486328 10.931641 L 17.402344 10.261719 C 17.040017 10.230071 16.676995 10.208173 16.3125 10.205078 z M 22.169922 12.488281 L 22.171875 12.503906 L 22.294922 12.488281 L 22.169922 12.488281 z "
     id="path7" /><path
     d="m 15.283118,15.981905 c 2.844021,-0.282368 5.784256,0.806624 7.763284,2.866301 0.541891,0.564047 0.47913,1.534795 -0.0917,2.056728 -0.518229,0.625491 -1.55695,0.667668 -2.120243,0.08134 -1.115542,-1.145104 -2.660754,-1.868945 -4.260571,-1.956184 -1.815657,-0.129418 -3.652841,0.58777 -4.942173,1.863732 -0.317137,0.356428 -0.788107,0.575219 -1.270124,0.518355 C 9.2423474,21.333727 8.4653477,19.839599 9.2363851,18.94285 10.793334,17.254287 13.004585,16.208161 15.283114,15.981902 Z"
     id="path9"
     inkscape:connector-curvature="0"
     style="fill:#020202" /><path
     d="m 15.721514,21.296698 c 1.83273,-0.307537 3.692759,1.205855 3.751944,3.064318 0.170024,1.822371 -1.438705,3.551668 -3.267605,3.511624 -1.64419,0.05699 -3.167938,-1.30703 -3.312105,-2.942307 -0.234417,-1.716679 1.108136,-3.435494 2.827766,-3.633635 z"
     id="path11"
     inkscape:connector-curvature="0"
     style="fill:#020202" /><rect
     style="opacity:1;fill:#000000;fill-opacity:0.98431373;fill-rule:nonzero;stroke:none;stroke-width:0.30000001;stroke-linecap:round;stroke-linejoin:round;stroke-miterlimit:4;stroke-dasharray:none;stroke-opacity:1"
     id="rect4209"
     width="2.254235"
     height="2.254235"
     x="11.568506"
     y="6.3537598"
     transform="matrix(0.99211102,-0.12536237,0.12536237,0.99211102,0,0)" /><rect
     y="8.5509071"
     x="13.765653"
     height="2.254235"
     width="2.254235"
     id="rect4211"
     style="opacity:1;fill:#000000;fill-opacity:0.98431373;fill-rule:nonzero;stroke:none;stroke-width:0.30000001;stroke-linecap:round;stroke-linejoin:round;stroke-miterlimit:4;stroke-dasharray:none;stroke-opacity:1"
     transform="matrix(0.99211102,-0.12536237,0.12536237,0.99211102,0,0)" /><rect
     y="10.785815"
     x="15.969995"
     height="2.254235"
     width="2.254235"
     id="rect4213"
     style="opacity:1;fill:#000000;fill-opacity:0.98431373;fill-rule:nonzero;stroke:none;stroke-width:0.30000001;stroke-linecap:round;stroke-linejoin:round;stroke-miterlimit:4;stroke-dasharray:none;stroke-opacity:1"
     transform="matrix(0.99211102,-0.12536237,0.12536237,0.99211102,0,0)" /><rect
     style="opacity:1;fill:#000000;fill-opacity:0.98431373;fill-rule:nonzero;stroke:none;stroke-width:0.30000001;stroke-linecap:round;stroke-linejoin:round;stroke-miterlimit:4;stroke-dasharray:none;stroke-opacity:1"
     id="rect4215"
     width="2.254235"
     height="2.254235"
     x="18.167141"
     y="12.982963"
     transform="matrix(0.99211102,-0.12536237,0.12536237,0.99211102,0,0)" /><rect
     style="opacity:1;fill:#000000;fill-opacity:0.98431373;fill-rule:nonzero;stroke:none;stroke-width:0.30000001;stroke-linecap:round;stroke-linejoin:round;stroke-miterlimit:4;stroke-dasharray:none;stroke-opacity:1"
     id="rect4217"
     width="2.254235"
     height="2.254235"
     x="20.371483"
     y="15.187306"
     transform="matrix(0.99211102,-0.12536237,0.12536237,0.99211102,0,0)" /><rect
     y="17.384451"
     x="22.56863"
     height="2.254235"
     width="2.254235"
     id="rect4219"
     style="opacity:1;fill:#000000;fill-opacity:0.98431373;fill-rule:nonzero;stroke:none;stroke-width:0.30000001;stroke-linecap:round;stroke-linejoin:round;stroke-miterlimit:4;stroke-dasharray:none;stroke-opacity:1"
     transform="matrix(0.99211102,-0.12536237,0.12536237,0.99211102,0,0)" /><rect
     y="6.3295779"
     x="15.925569"
     height="2.254235"
     width="2.254235"
     id="rect4223"
     style="opacity:1;fill:#000000;fill-opacity:0.98431373;fill-rule:nonzero;stroke:none;stroke-width:0.30000001;stroke-linecap:round;stroke-linejoin:round;stroke-miterlimit:4;stroke-dasharray:none;stroke-opacity:1"
     transform="matrix(0.99211102,-0.12536237,0.12536237,0.99211102,0,0)" /><rect
     style="opacity:1;fill:#000000;fill-opacity:0.98431373;fill-rule:nonzero;stroke:none;stroke-width:0.30000001;stroke-linecap:round;stroke-linejoin:round;stroke-miterlimit:4;stroke-dasharray:none;stroke-opacity:1"
     id="rect4229"
     width="2.254235"
     height="2.254235"
     x="22.531399"
     y="12.965978"
     transform="matrix(0.99211102,-0.12536237,0.12536237,0.99211102,0,0)" /><rect
     transform="matrix(0.99211102,-0.12536237,0.12536237,0.99211102,0,0)"
     y="8.5824366"
     x="22.549988"
     height="2.254235"
     width="2.254235"
     id="rect4239"
     style="opacity:1;fill:#000000;fill-opacity:0.98431373;fill-rule:nonzero;stroke:none;stroke-width:0.30000001;stroke-linecap:round;stroke-linejoin:round;stroke-miterlimit:4;stroke-dasharray:none;stroke-opacity:1" /><rect
     transform="matrix(0.99211102,-0.12536237,0.12536237,0.99211102,0,0)"
     y="10.642156"
     x="20.36495"
     height="2.254235"
     width="2.254235"
     id="rect4304"
     style="opacity:1;fill:#000000;fill-opacity:0.98431373;fill-rule:nonzero;stroke:none;stroke-width:0.30000001;stroke-linecap:round;stroke-linejoin:round;stroke-miterlimit:4;stroke-dasharray:none;stroke-opacity:1" /><rect
     style="opacity:1;fill:#000000;fill-opacity:0.98431373;fill-rule:nonzero;stroke:none;stroke-width:0.30000001;stroke-linecap:round;stroke-linejoin:round;stroke-miterlimit:4;stroke-dasharray:none;stroke-opacity:1"
     id="rect4306"
     width="2.254235"
     height="2.254235"
     x="20.804838"
     y="5.6284928"
     transform="matrix(0.99211102,-0.12536237,0.12536237,0.99211102,0,0)" /></svg>