<?xml version="1.0" encoding="UTF-8" standalone="no"?>
<!-- Generator: Adobe Illustrator 19.0.0, SVG Export Plug-In . SVG Version: 6.00 Build 0)  -->

<svg
   xmlns:dc="http://purl.org/dc/elements/1.1/"
   xmlns:cc="http://creativecommons.org/ns#"
   xmlns:rdf="http://www.w3.org/1999/02/22-rdf-syntax-ns#"
   xmlns:svg="http://www.w3.org/2000/svg"
   xmlns="http://www.w3.org/2000/svg"
   xmlns:sodipodi="http://sodipodi.sourceforge.net/DTD/sodipodi-0.dtd"
   xmlns:inkscape="http://www.inkscape.org/namespaces/inkscape"
   version="1.1"
   id="Capa_1"
   x="0px"
   y="0px"
   viewBox="0 0 512.004 512.004"
   style="enable-background:new 0 0 512.004 512.004;"
   xml:space="preserve"
   inkscape:version="0.91 r13725"
   sodipodi:docname="level-beginner.svg"><metadata
     id="metadata5793"><rdf:RDF><cc:Work
         rdf:about=""><dc:format>image/svg+xml</dc:format><dc:type
           rdf:resource="http://purl.org/dc/dcmitype/StillImage" /><dc:title></dc:title></cc:Work></rdf:RDF></metadata><defs
     id="defs5791" /><sodipodi:namedview
     pagecolor="#ffffff"
     bordercolor="#666666"
     borderopacity="1"
     objecttolerance="10"
     gridtolerance="10"
     guidetolerance="10"
     inkscape:pageopacity="0"
     inkscape:pageshadow="2"
     inkscape:window-width="640"
     inkscape:window-height="480"
     id="namedview5789"
     showgrid="false"
     inkscape:zoom="0.46093387"
     inkscape:cx="256.00201"
     inkscape:cy="256.00201"
     inkscape:window-x="105"
     inkscape:window-y="369"
     inkscape:window-maximized="0"
     inkscape:current-layer="Capa_1" /><g
     id="g5737"><path
       style="fill:#5C546A;"
       d="M511.642,501.636L380.494,77.344c-3.797-12.297-13.359-22.066-25.57-26.133l-11.737-3.919   c1.054,1.618,2.071,3.263,3.036,4.942c2.505,4.355,4.703,8.909,6.565,13.632c0.621,1.574,1.204,3.167,1.749,4.778   c0.545,1.611,1.052,3.24,1.519,4.885c0.419,1.477,0.802,2.969,1.157,4.471h2.788c4.418,0,8,3.582,8,8v24h6.461l121.898,394.363   c1.063,3.434,4.219,5.641,7.641,5.641c0.781,0,1.578-0.117,2.359-0.359C510.588,510.34,512.947,505.859,511.642,501.636z"
       id="path5739" /><path
       style="fill:#5C546A;"
       d="M152.002,80h2.788c2.79-11.809,7.593-22.838,14.026-32.708l-11.736,3.919   c-12.211,4.066-21.773,13.836-25.57,26.133L0.361,501.636c-1.305,4.223,1.055,8.703,5.281,10.008   c0.781,0.242,1.578,0.359,2.359,0.359c3.422,0,6.578-2.207,7.641-5.641L137.541,112h6.461V88C144.002,83.582,147.583,80,152.002,80   z"
       id="path5741" /><path
       style="fill:#B6B8BE;"
       d="M154.79,128c10.242,43.355,47.615,76.228,93.212,79.697V128H154.79z"
       id="path5743" /><path
       style="fill:#B6B8BE;"
       d="M352.788,65.866c0.621,1.574,1.204,3.167,1.749,4.778C353.992,69.033,353.409,67.44,352.788,65.866z   "
       id="path5745" /><path
       style="fill:#B6B8BE;"
       d="M248.002,80V56c0-4.418,3.578-8,8-8V0c-36.516,0-68.631,18.823-87.186,47.292   c-6.434,9.871-11.237,20.9-14.026,32.708H248.002z"
       id="path5747" /><path
       style="fill:#888693;"
       d="M248.002,80H154.79h-2.788c-4.418,0-8,3.582-8,8v24v8c0,4.418,3.582,8,8,8h2.788h93.212V80z"
       id="path5749" /><path
       style="fill:#B6B8BE;"
       d="M360.002,80h-2.788h-93.211v48h96c4.418,0,8-3.582,8-8v-8V88C368.002,83.582,364.42,80,360.002,80z"
       id="path5751" /><path
       style="fill:#5C546A;"
       d="M264.002,80V56c0-4.418-3.578-8-8-8s-8,3.582-8,8v24v48v79.697V504c0,4.418,3.578,8,8,8s8-3.582,8-8   V207.697V128V80z"
       id="path5753" /><path
       style="fill:#D5D9DE;"
       d="M264.002,80V56c0-4.418-3.578-8-8-8V0c36.516,0,68.631,18.823,87.186,47.292   c6.434,9.871,11.237,20.9,14.026,32.708H264.002z"
       id="path5755" /><path
       style="fill:#D5D9DE;"
       d="M357.214,128c-10.242,43.355-47.615,76.228-93.212,79.697V128H357.214z"
       id="path5757" /></g><g
     id="g5759" /><g
     id="g5761" /><g
     id="g5763" /><g
     id="g5765" /><g
     id="g5767" /><g
     id="g5769" /><g
     id="g5771" /><g
     id="g5773" /><g
     id="g5775" /><g
     id="g5777" /><g
     id="g5779" /><g
     id="g5781" /><g
     id="g5783" /><g
     id="g5785" /><g
     id="g5787" /></svg>