<?xml version="1.0" encoding="UTF-8" standalone="no"?>
<!-- Created with Inkscape (http://www.inkscape.org/) -->

<svg xmlns:dc="http://purl.org/dc/elements/1.1/" xmlns:cc="http://creativecommons.org/ns#" xmlns:rdf="http://www.w3.org/1999/02/22-rdf-syntax-ns#" xmlns:svg="http://www.w3.org/2000/svg" xmlns="http://www.w3.org/2000/svg" xmlns:xlink="http://www.w3.org/1999/xlink" xmlns:sodipodi="http://sodipodi.sourceforge.net/DTD/sodipodi-0.dtd" xmlns:inkscape="http://www.inkscape.org/namespaces/inkscape" width="64" height="64" id="svg3816" version="1.1" inkscape:version="0.91 r13725" sodipodi:docname="speedometer.svg" inkscape:export-filename="/Users/stuartlowe/Projects/classroom-rocket-scientist/classroom-rocket-scientist/images/png/speedometer.png" inkscape:export-xdpi="90" inkscape:export-ydpi="90">
  <defs id="defs3818">
    <inkscape:perspective sodipodi:type="inkscape:persp3d" inkscape:vp_x="0 : 64 : 1" inkscape:vp_y="0 : 1000 : 0" inkscape:vp_z="64 : 64 : 1" inkscape:persp3d-origin="32 : 42.667 : 1" id="perspective3924" />
    <linearGradient id="linearGradient3775">
      <stop id="stop3777" offset="0" style="stop-color:#939393;stop-opacity:1;" />
      <stop id="stop3779" offset="1" style="stop-color:#f0f0f0;stop-opacity:1;" />
    </linearGradient>
    <linearGradient gradientTransform="matrix(0.73585,0,0,1.026,69.831,551.34)" gradientUnits="userSpaceOnUse" y2="213.06" x2="64.521" y1="31.14" x1="64.521" id="linearGradient3781" xlink:href="#linearGradient3775-7" inkscape:collect="always" />
    <linearGradient id="linearGradient3775-7">
      <stop id="stop3777-3" offset="0" style="stop-color:#939393;stop-opacity:1;" />
      <stop id="stop3779-6" offset="1" style="stop-color:#f0f0f0;stop-opacity:1;" />
    </linearGradient>
  </defs>
  <sodipodi:namedview id="base" pagecolor="#ffffff" bordercolor="#666666" borderopacity="1.0" inkscape:pageopacity="0.0" inkscape:pageshadow="2" inkscape:zoom="8.0002" inkscape:cx="33.632" inkscape:cy="27.636" inkscape:document-units="px" inkscape:current-layer="layer1" showgrid="true" inkscape:window-width="1280" inkscape:window-height="756" inkscape:window-x="13" inkscape:window-y="5" inkscape:window-maximized="0" fit-margin-top="0" fit-margin-left="0" fit-margin-right="0" fit-margin-bottom="0" showguides="true" inkscape:guide-bbox="true" inkscape:snap-global="true">
    <inkscape:grid type="xygrid" id="grid3826" empspacing="2" visible="true" enabled="true" snapvisiblegridlinesonly="true" spacingx="0.5px" spacingy="0.5px" originx="-69.999" originy="-95.962" />
  </sodipodi:namedview>
  <metadata id="metadata3821">
    <rdf:RDF>
      <cc:Work rdf:about="">
        <dc:format>image/svg+xml</dc:format>
        <dc:type rdf:resource="http://purl.org/dc/dcmitype/StillImage" />
        <dc:title></dc:title>
      </cc:Work>
    </rdf:RDF>
  </metadata>
  <g inkscape:label="Layer 1" inkscape:groupmode="layer" id="layer1" transform="translate(-69.999,-1004.4)">
    <path id="path3076" d="m 7.9974,1118.4 c -3.5,0 -6,2.5 -6,6 0,3.5 2.5,6 6,6 3.4996,0 5.9996,-2.5 5.9996,-6 0,-3.5 -2.5,-6 -5.9996,-6 z m -2.3438,2.5 2.3438,2.3 2.3436,-2.3 1.156,1.1 -2.3434,2.4 2.3434,2.3 -1.156,1.2 -2.3436,-2.4 -2.3438,2.4 -1.1562,-1.2 2.3437,-2.3 -2.3437,-2.4 1.1562,-1.1 z" style="fill:#ffffff;fill-opacity:1;stroke:none" inkscape:connector-curvature="0" />
    <g id="g6051" style="fill:none" transform="translate(0,-16)">
      <rect style="fill:none;stroke:none" id="rect6006" width="16" height="16" x="0" y="1084.4" ry="0.066356" />
      <rect style="fill:none;stroke:none" id="rect5932" width="16" height="16" x="0" y="1052.4" ry="0.066356" />
      <rect style="fill:none;stroke:none" id="rect5972" width="16" height="16" x="16" y="1068.4" ry="0.066356" />
      <rect ry="0.066356" y="1052.4" x="32" height="16" width="16" id="rect5974" style="fill:none;stroke:none" />
      <rect ry="0.066356" y="1084.4" x="32" height="16" width="16" id="rect6008" style="fill:none;stroke:none" />
      <rect style="fill:none;stroke:none" id="rect6010" width="16" height="16" x="16" y="1100.4" ry="0.066356" />
      <rect transform="matrix(0,-1,1,0,0,0)" ry="0.066356" y="6.9337e-14" x="-1132.4" height="16" width="16" id="rect6012" style="fill:none;stroke:none" />
      <rect style="fill:none;stroke:none" id="rect6014" width="16" height="16" x="32" y="1116.4" ry="0.066356" />
      <rect ry="0.066356" y="1132.4" x="16" height="16" width="16" id="rect6037" style="fill:none;stroke:none" />
      <rect style="fill:none;stroke:none" id="rect6039" width="16" height="16" x="-1164.4" y="6.9337e-14" ry="0.066356" transform="matrix(0,-1,1,0,0,0)" />
      <rect ry="0.066356" y="1148.4" x="32" height="16" width="16" id="rect6041" style="fill:none;stroke:none" />
    </g>
    <text xml:space="preserve" style="font-style:normal;font-variant:normal;font-weight:normal;font-stretch:normal;font-size:40px;line-height:125%;font-family:'Century Gothic';-inkscape-font-specification:'Century Gothic';letter-spacing:0px;word-spacing:0px;fill:#000000;fill-opacity:1;stroke:none" x="50.940369" y="20.206964" id="text5513" sodipodi:linespacing="125%" transform="translate(0,1052.4)"><tspan sodipodi:role="line" id="tspan5515" x="50.940369" y="20.206964" /></text>
    <g id="g3097" transform="translate(-3,2.5)" />
    <text xml:space="preserve" style="font-style:normal;font-variant:normal;font-weight:normal;font-stretch:normal;font-size:40px;line-height:125%;font-family:'Century Gothic';-inkscape-font-specification:'Century Gothic';letter-spacing:0px;word-spacing:0px;fill:#000000;fill-opacity:1;stroke:none" x="69.375" y="42.625015" id="text3869" sodipodi:linespacing="125%" transform="translate(0,1036.4)"><tspan sodipodi:role="line" id="tspan3871" x="69.375" y="42.625015" /></text>
    <g style="fill:#000000;fill-opacity:1" id="g3098" transform="matrix(1,0,0,-1,-35.5,2250.7)" />
    <g transform="translate(4.5,-25.781)" id="g4281" style="fill:#ff0000;stroke:none" />
    <g id="g3073" style="fill:#f6f6f6;fill-opacity:1" transform="matrix(0.33333,-0.3125,0.33333,0.3125,-333.12,774.94)" />
    <path sodipodi:nodetypes="sccccssccccsscscsccccscccccccccccccccccccccscssscscccccccccccccccccccccccccc" inkscape:connector-curvature="0" id="path3910" d="m 5.9948,1039.4 c -2,0 -3,1 -3,1 l 0,1.3 c -1.1292,0.3 -2,0.7 -2,0.7 l 0,7 c 0,0 1,-0.5 3,-0.5 2,0 4.5,1 6.5002,1 2,0 2.5,-0.5 2.5,-0.5 l 0,-1.6 c 1.187,-0.1 2,-0.4 2,-0.4 l 0,-7.5 c 0,0 -1.5,0.5 -3.5,0.5 -2.0002,0 -3.5002,-1 -5.5002,-1 z m 3.375,1.6 c -0.1193,-0.1 -0.2485,-0.1 -0.375,-0.1 -0.8054,0 -1.5115,0.4 -1.9688,1 -1.0524,-0.2 -2.0952,-0.5 -3.0312,-0.5 -0.031,0 0.031,0.5 0,0.5 0.094,0 1,-0.5 0.8281,-1.3 1.1719,-0.7 2.9556,0 4.5469,0.4 z m 0.3437,0 c 1.0205,0.2 1.0205,0.4 1.7815,0.4 0.514,0 0.93,0 1.281,-0.1 0.142,0.6 0.541,0.8 1.219,0.8 l 0,3.5 c -0.469,0 -0.788,0.2 -1,0.4 l 0,-4.1 c 0,0 -0.142,0.4 -1.719,0.5 -0.295,-0.7 -0.871,-1.2 -1.5625,-1.4 z m -1.2187,0.4 1,0 0,0.5 0,0.5 0.5,0 c -0.6402,-0.1 -1.3092,-0.2 -2,-0.3 l 0.5,0.3 0,-0.5 z m 2.0002,2 c 0.514,0 -0.07,0 0.281,-0.1 0.142,0.6 0.541,1.6 1.219,1.6 l 0,2.5 c -0.822,0 -1.248,0.6 -1.281,1.4 -0.338,0.1 0.262,0.1 -0.219,0.1 -0.8809,0 -2.1149,-0.3 -3.344,-0.5 1.3052,-0.1 2.3438,-1.2 2.3438,-2.5 0,-1.4 -1.1193,-3 -2.5,-3 -1.3807,0 -2.5,1.1 -2.5,2.5 0,1 0.5819,2.3 1.4062,2.7 -0.705,-0.1 -1.3789,-0.2 -1.9062,-0.2 -0.6788,0 -0.5088,-0.1 -1,0 -0.1188,-0.6 -0.2853,-1 -1,-1 l 0,-2.5 c 0.75,0 1.1562,-1 1.25,-1.7 1.25,-0.8 4.984,0.7 7.2502,0.7 z m -4.0002,0 1,0 0,0.5 0.5,0 0.5,1 -1.5,0 1,0.5 0.5,1 -0.5,1 -0.5,0 0,0.5 -1,0 0,-0.5 -0.5,0 -0.5,-1 1.5,0 -1,-0.5 -0.5,-1 0.5,-1 0.5,0 z" style="fill:#ffffff;fill-opacity:1;stroke:none" />
    <path inkscape:connector-curvature="0" id="path3912" d="m 7.9948,1054.4 c -1.3807,0 -2.5,1.1 -2.5,2.5 0,0.8 0.3882,1.6 1,2 -0.1954,0.2 -0.3545,0.3 -0.5,0.5 l -2,0 -2,7 12.0002,0 -2,-7 -2.0002,0 c -0.1455,-0.2 -0.3046,-0.3 -0.5,-0.5 0.6122,-0.4 1.0002,-1.2 1.0002,-2 0,-1.4 -1.1195,-2.5 -2.5002,-2.5 z m 0,1 c 0.8333,0 1.5,0.7 1.5,1.5 0,0.9 -0.6667,1.5 -1.5,1.5 -0.8333,0 -1.5,-0.6 -1.5,-1.5 0,-0.8 0.6667,-1.5 1.5,-1.5 z" style="fill:#ffffff;fill-opacity:1;stroke:none" />
    <path sodipodi:nodetypes="ccsscscscccccccccscsccccccsscscssssssssssssssssssss" inkscape:connector-curvature="0" id="path3914" d="m 5.4948,1086.4 0,1 c 0.375,0 0.4766,0 0.5,0.2 0.01,0.1 0,0.2 0,0.3 l 0,2.5 c 0,0 -5.5,7 -5,7.5 0.5,0.5 7,0.5 7,0.5 0,0 6.5002,0 7.0002,-0.5 0.5,-0.5 -5.0002,-7.5 -5.0002,-7.5 l 0,-2.5 0,-0.3 c 0.023,-0.2 0.1252,-0.2 0.5002,-0.2 l 0,-1 c -1.2857,0 -1.4427,0.1 -1.469,1 l -0.031,0 0,0.5 0,3 c 0,0 4.436,5.6 4,6 -0.437,0.4 -5,0.5 -5,0.5 0,0 -4.5635,-0.1 -5,-0.5 -0.4365,-0.4 4,-6 4,-6 l 0,-3 0,-0.5 -0.031,0 c -0.026,-0.9 -0.1832,-1 -1.4687,-1 z m 1,6.5 c 0,0 -3,3 -2.5,3.5 0.5,0.5 7.5002,0.5 8.0002,0 0.5,-0.5 -2.5002,-3.5 -2.5002,-3.5 0,0 -0.5,0.5 -1.5,0.5 -1,0 -1.5,-0.5 -1.5,-0.5 z m 0.5,1 c 0.2761,0 0.5,0.2 0.5,0.5 0,0.3 -0.2239,0.5 -0.5,0.5 -0.2761,0 -0.5,-0.2 -0.5,-0.5 0,-0.3 0.2239,-0.5 0.5,-0.5 z m 2,0 c 0.2761,0 0.5,0.2 0.5,0.5 0,0.3 -0.2239,0.5 -0.5,0.5 -0.2761,0 -0.5,-0.2 -0.5,-0.5 0,-0.3 0.2239,-0.5 0.5,-0.5 z m -1,1 c 0.2761,0 0.5,0.2 0.5,0.5 0,0.3 -0.2239,0.5 -0.5,0.5 -0.2761,0 -0.5,-0.2 -0.5,-0.5 0,-0.3 0.2239,-0.5 0.5,-0.5 z m -1.5,0.5 c 0.2761,0 0.5,0.2 0.5,0.5 0,0.3 -0.2239,0.5 -0.5,0.5 -0.2761,0 -0.5,-0.2 -0.5,-0.5 0,-0.3 0.2239,-0.5 0.5,-0.5 z" style="fill:#ffffff;fill-opacity:1;stroke:none" />
    <path style="fill:#ffffff;fill-opacity:1;stroke:none" d="m 8,98.063 c -0.5,0 -6.5,10.547 -6,10.997 0.5,0.46 11.5,0.46 12,0 0.5,-0.45 -5.5,-10.997 -6,-10.997 z m -1,2.997 2,0 c 0,2 0.031,-0.73 0,4 l -2,0 c 0.031,-3.73 0,-2 0,-4 z m 1,5.13 c 0.5523,0 1,0.42 1,0.93 0,0.52 -0.4477,0.94 -1,0.94 -0.5523,0 -1,-0.42 -1,-0.94 0,-0.51 0.4477,-0.93 1,-0.93 z" transform="translate(0,1036.4)" id="path3918" inkscape:connector-curvature="0" />
    <path inkscape:connector-curvature="0" id="path3924" d="m 6.9948,1102.4 c -0.5,0 -1,0.5 -1,1 l 0,3 -3,0 c -0.5,0 -1,0.5 -1,1 l 0,6 c 0,0.5 0.5,1 1,1 l 6,0 c 0.5,0 1,-0.5 1,-1 l 0,-3 3.0002,0 c 0.5,0 1,-0.5 1,-1 l 0,-6 c 0,-0.5 -0.5,-1 -1,-1 l -6.0002,0 z m 0.5,1 5.0002,0 c 0.336,0 0.5,0.2 0.5,0.5 l 0,5 c 0,0.3 -0.164,0.5 -0.5,0.5 l -2.5002,0 0,-2 c 0,-0.5 -0.5,-1 -1,-1 l -2.0625,0 0.062,-2.5 c 0.01,-0.3 0.1642,-0.5 0.5,-0.5 z m 1,0.5 c -0.5523,0 -1,0.5 -1,1 0,0.6 0.4477,1 1,1 0.5523,0 1,-0.4 1,-1 0,-0.5 -0.4477,-1 -1,-1 z m 3.0002,0 c -0.552,0 -1,0.5 -1,1 0,0.6 0.448,1 1,1 0.552,0 1,-0.4 1,-1 0,-0.5 -0.448,-1 -1,-1 z m 0,3 c -0.552,0 -1,0.5 -1,1 0,0.6 0.448,1 1,1 0.552,0 1,-0.4 1,-1 0,-0.5 -0.448,-1 -1,-1 z m -8.0002,0.5 5,0 c 0.3358,0 0.5,0.2 0.5,0.5 l 0,5 c 0,0.3 -0.1642,0.5 -0.5,0.5 l -5,0 c -0.3358,0 -0.6326,-0.2 -0.625,-0.6 l 0.125,-4.9 c 0.01,-0.3 0.1642,-0.5 0.5,-0.5 z m 1,0.5 c -0.5523,0 -1,0.5 -1,1 0,0.6 0.4477,1 1,1 0.5523,0 1,-0.4 1,-1 0,-0.5 -0.4477,-1 -1,-1 z m 1.5,1.5 c -0.5523,0 -1,0.5 -1,1 0,0.6 0.4477,1 1,1 0.5523,0 1,-0.4 1,-1 0,-0.5 -0.4477,-1 -1,-1 z m 1.5,1.5 c -0.5523,0 -1,0.5 -1,1 0,0.6 0.4477,1 1,1 0.5523,0 1,-0.4 1,-1 0,-0.5 -0.4477,-1 -1,-1 z" style="fill:#ffffff;fill-opacity:1;stroke:none" />
    <g style="fill:#ffffff;fill-opacity:1" id="g3926" transform="translate(-16.005,-63.939)">
      <path style="fill:#ffffff;fill-opacity:1;stroke:none" d="m 18,98 0,4 0,8 12,0 0,-8 0,-4 z m 1,4 10,0 0,7 -10,0 z" transform="translate(0,1036.4)" id="path3928" inkscape:connector-curvature="0" sodipodi:nodetypes="cccccccccccc" />
      <path style="fill:#ffffff;fill-opacity:1;stroke:none" d="m 21,1139.4 0,1 3,0 0,1 -2,0 0,1 2,0 0,1 -3,0 0,1 4,0 0,-5 z" id="path3930" inkscape:connector-curvature="0" sodipodi:nodetypes="ccccccccccccc" />
      <rect style="fill:#ffffff;fill-opacity:1;stroke:none" id="rect3932" width="1" height="5" x="26" y="1139.4" />
    </g>
    <path inkscape:connector-curvature="0" style="fill:#ffffff;fill-opacity:1;stroke:none" d="m 12.182,1150 c -0.984,0.2 -2.093,1.3 -2.093,1.3 -0.1017,0.1 -0.2017,0.2 -0.2817,0.3 -0.025,0 -0.041,0 -0.062,0.1 l -2.875,2.8 -1.1563,-0.5 1.7813,-1.6 -2,-1 -4.5,4 2,1 2.1562,-1.9 1.2188,0.5 -0.875,0.9 -1,0 -2.5,2.5 0,2 1.5,1.5 2,0 0.5,-0.5 2,-2 0,-1 1.7812,-1.8 1.0315,0.5 -2.3127,2.3 2.5007,1.5 4.5,-5 -2.5,-1 -1.689,1.7 -1.031,-0.5 1.906,-1.9 c 0.135,0 0.274,-0.1 0.375,-0.2 0.491,-0.6 0.327,-1.5 -0.311,-2.2 0.715,-0.4 1.401,-0.9 0.843,-1.5 -0.25,-0.2 -0.579,-0.3 -0.907,-0.3 z" id="path3934" />
    <g id="g4241" transform="matrix(4,0,0,4,-122.22,-3200.7)" style="fill:#ffffff">
      <path id="path4221" transform="translate(0,1036.4)" d="m 56.053,17.037 a 7,7 0 0 0 -7,7 7,7 0 0 0 0.465,2.488 l 0.939,-0.939 a 5.8068,5.8068 0 0 1 -0.213,-1.549 5.8068,5.8068 0 0 1 5.809,-5.799 5.8068,5.8068 0 0 1 5.806,5.799 5.8068,5.8068 0 0 1 -0.216,1.545 l 0.947,0.947 a 7,7 0 0 0 0.463,-2.492 7,7 0 0 0 -7,-7 z" style="opacity:1;fill:#ffffff;fill-opacity:1;stroke:none;stroke-width:50;stroke-linecap:round;stroke-linejoin:round;stroke-miterlimit:4;stroke-dasharray:none;stroke-dashoffset:0;stroke-opacity:1" inkscape:connector-curvature="0" />
      <path inkscape:transform-center-y="-3.7007" inkscape:transform-center-x="-1.0346" sodipodi:nodetypes="ccccsc" inkscape:connector-curvature="0" id="path4229" d="m 54.896,1061 3.54,-8.4 0.772,0.3 -1.999,8.8 c 0,0 -0.745,1 -1.516,0.8 -0.772,-0.3 -0.798,-1.5 -0.798,-1.5 z" style="fill:#ffffff;fill-opacity:1;fill-rule:evenodd;stroke:none;stroke-width:1px;stroke-linecap:butt;stroke-linejoin:miter;stroke-opacity:1" />
      <path inkscape:transform-center-y="0.03125" inkscape:transform-center-x="5.5312" inkscape:connector-curvature="0" id="path4231" d="m 49.5,1059.9 2,0 0,1 -2,0 z" style="fill:#ffffff;fill-opacity:1;fill-rule:evenodd;stroke:none;stroke-width:1px;stroke-linecap:butt;stroke-linejoin:miter;stroke-opacity:1" />
      <path style="fill:#ffffff;fill-opacity:1;fill-rule:evenodd;stroke:none;stroke-width:1px;stroke-linecap:butt;stroke-linejoin:miter;stroke-opacity:1" d="m 56.516,1053.8 0,2 -1,0 0,-2 z" id="path4233" inkscape:connector-curvature="0" inkscape:transform-center-x="0.0152" inkscape:transform-center-y="-5.5688" />
      <path inkscape:transform-center-y="0.0312" inkscape:transform-center-x="-5.5688" inkscape:connector-curvature="0" id="path4235" d="m 62.6,1060.9 -2,0 0,-1 2,0 z" style="fill:#ffffff;fill-opacity:1;fill-rule:evenodd;stroke:none;stroke-width:1px;stroke-linecap:butt;stroke-linejoin:miter;stroke-opacity:1" />
      <path style="fill:#ffffff;fill-opacity:1;fill-rule:evenodd;stroke:none;stroke-width:1px;stroke-linecap:butt;stroke-linejoin:miter;stroke-opacity:1" d="m 60.996,1056 -1.396,1.5 -0.716,-0.7 1.396,-1.5 z" id="path4237" inkscape:connector-curvature="0" inkscape:transform-center-x="-3.9088" inkscape:transform-center-y="-3.9688" />
      <path inkscape:transform-center-y="-3.7688" inkscape:transform-center-x="4.1087" inkscape:connector-curvature="0" id="path4239" d="m 51.484,1055.6 1.55,1.3 -0.673,0.7 -1.55,-1.3 z" style="fill:#ffffff;fill-opacity:1;fill-rule:evenodd;stroke:none;stroke-width:1px;stroke-linecap:butt;stroke-linejoin:miter;stroke-opacity:1" />
    </g>
  </g>
</svg>
